<svg width="20" height="20" viewBox="0 0 20 20" fill="none" xmlns="http://www.w3.org/2000/svg">
<path fill-rule="evenodd" clip-rule="evenodd" d="M5.83341 1.04175C3.18705 1.04175 1.04175 3.18705 1.04175 5.83341C1.04175 7.47549 1.86801 8.92391 3.12508 9.78675V15.5597C3.12508 16.1675 3.36652 16.7504 3.7963 17.1802L5.39147 18.7753C5.50868 18.8926 5.66766 18.9584 5.83341 18.9584C5.99917 18.9584 6.15815 18.8926 6.27536 18.7753L8.11461 16.9361C8.38808 16.6626 8.54175 16.2917 8.54175 15.9049V15.2778C8.54175 14.9623 8.43941 14.6553 8.25008 14.4028L7.6004 13.5366C7.53819 13.4537 7.54644 13.3376 7.61975 13.2643L8.11461 12.7694C8.38808 12.4959 8.54175 12.125 8.54175 11.7382V9.78675C9.79883 8.92391 10.6251 7.47549 10.6251 5.83341C10.6251 3.18705 8.47975 1.04175 5.83341 1.04175ZM5.83341 4.58341C5.14306 4.58341 4.58341 5.14306 4.58341 5.83341C4.58341 6.52377 5.14306 7.08341 5.83341 7.08341H5.8409C6.53126 7.08341 7.0909 6.52377 7.0909 5.83341C7.0909 5.14306 6.53126 4.58341 5.8409 4.58341H5.83341Z" fill="white"/>
<path fill-rule="evenodd" clip-rule="evenodd" d="M10.2083 11.6667C10.2083 11.3216 10.4881 11.0417 10.8333 11.0417H17.4999C18.3053 11.0417 18.9583 11.6947 18.9583 12.5001V15.8334C18.9583 16.6388 18.3053 17.2917 17.4999 17.2917H10.8333C10.4881 17.2917 10.2083 17.0119 10.2083 16.6667V11.6667Z" fill="white"/>
<path d="M10.3972 9.79175C11.3162 8.73275 11.8747 7.34864 11.8747 5.83341C11.8747 5.02226 11.7149 4.24845 11.425 3.54175H17.5007C18.3061 3.54175 18.959 4.19466 18.959 5.00008V8.33341C18.959 9.13883 18.3061 9.79175 17.5007 9.79175H10.3972Z" fill="white"/>
</svg>
