<svg width="12" height="12" viewBox="0 0 12 12" fill="none" xmlns="http://www.w3.org/2000/svg">
<path fill-rule="evenodd" clip-rule="evenodd" d="M6 4C4.89543 4 4 4.89543 4 6C4 7.10457 4.89543 8 6 8C7.10457 8 8 7.10457 8 6C8 4.89543 7.10457 4 6 4ZM5 6C5 5.44772 5.44772 5 6 5C6.55228 5 7 5.44772 7 6C7 6.55228 6.55228 7 6 7C5.44772 7 5 6.55228 5 6Z" fill="white"/>
<path fill-rule="evenodd" clip-rule="evenodd" d="M10.1574 7.70188L9.7 7.5L10.1596 7.69697C10.1845 7.63871 10.226 7.58902 10.2788 7.55403C10.3315 7.51917 10.3931 7.5004 10.4563 7.5H10.5C10.8978 7.5 11.2794 7.34196 11.5607 7.06066C11.842 6.77936 12 6.39783 12 6C12 5.60217 11.842 5.22064 11.5607 4.93934C11.2794 4.65804 10.8978 4.5 10.5 4.5H10.4163C10.3531 4.4996 10.2915 4.48083 10.2388 4.44597C10.2034 4.42249 10.1731 4.3924 10.1494 4.35753C10.1423 4.32346 10.1316 4.29014 10.1174 4.25812C10.0912 4.19871 10.0834 4.13281 10.095 4.06891C10.1064 4.00571 10.1364 3.94734 10.181 3.90115L10.2086 3.87355C10.3479 3.73428 10.4585 3.56892 10.5339 3.38691C10.6094 3.20481 10.6483 3.00962 10.6483 2.8125C10.6483 2.61538 10.6094 2.42019 10.5339 2.23809C10.4585 2.05616 10.348 1.89087 10.2087 1.75164C10.0694 1.61218 9.90401 1.50154 9.72191 1.42605C9.53981 1.35057 9.34462 1.31171 9.1475 1.31171C8.95038 1.31171 8.75519 1.35057 8.57309 1.42605C8.39099 1.50154 8.22556 1.61218 8.08625 1.75164L8.05884 1.77906C8.01265 1.82364 7.95429 1.85357 7.89109 1.86502C7.82719 1.87661 7.7613 1.86876 7.70189 1.84254L7.69697 1.84043C7.63871 1.81546 7.58902 1.774 7.55403 1.72116C7.51917 1.66852 7.5004 1.60687 7.5 1.54375V1.5C7.5 1.10217 7.34196 0.720644 7.06066 0.43934C6.77936 0.158035 6.39782 0 6 0C5.60218 0 5.22064 0.158035 4.93934 0.43934C4.65804 0.720644 4.5 1.10217 4.5 1.5V1.58375C4.4996 1.64687 4.48083 1.70852 4.44597 1.76116C4.42249 1.79662 4.3924 1.82695 4.35754 1.85061C4.32346 1.85775 4.29014 1.86844 4.25812 1.88257C4.19871 1.90879 4.13281 1.91661 4.06891 1.90502C4.00571 1.89356 3.94734 1.86364 3.90115 1.81905L3.87375 1.79164C3.73444 1.65218 3.56901 1.54154 3.38691 1.46605C3.20481 1.39057 3.00962 1.35171 2.8125 1.35171C2.61538 1.35171 2.42019 1.39057 2.23809 1.46605C2.05608 1.5415 1.89072 1.65207 1.75145 1.79145C1.61207 1.93072 1.5015 2.09608 1.42605 2.27809C1.35057 2.46019 1.31171 2.65538 1.31171 2.8525C1.31171 3.04962 1.35057 3.24481 1.42605 3.42691C1.50154 3.60901 1.61218 3.77444 1.75164 3.91375L1.77905 3.94116C1.82364 3.98734 1.85356 4.04571 1.86502 4.10891C1.87661 4.17281 1.86879 4.23871 1.84257 4.29812C1.83832 4.30775 1.83437 4.31752 1.83073 4.32741C1.80822 4.38862 1.76782 4.44163 1.71478 4.47957C1.66296 4.51663 1.60142 4.53763 1.53782 4.54H1.5C1.10217 4.54 0.720644 4.69804 0.43934 4.97934C0.158035 5.26064 0 5.64218 0 6.04C0 6.43782 0.158035 6.81936 0.43934 7.10066C0.720644 7.38196 1.10217 7.54 1.5 7.54H1.58375C1.64687 7.5404 1.70852 7.55917 1.76116 7.59403C1.814 7.62902 1.85544 7.67872 1.8804 7.73698L1.88257 7.74188C1.90879 7.80129 1.91661 7.86719 1.90502 7.93109C1.89357 7.99429 1.86364 8.05265 1.81906 8.09884L1.79164 8.12625C1.65218 8.26556 1.54154 8.43099 1.46605 8.61309C1.39057 8.79519 1.35171 8.99038 1.35171 9.1875C1.35171 9.38462 1.39057 9.57981 1.46605 9.76191C1.54154 9.94401 1.65218 10.1094 1.79164 10.2488C1.93087 10.388 2.09617 10.4985 2.27809 10.5739C2.46019 10.6494 2.65538 10.6883 2.8525 10.6883C3.04962 10.6883 3.24481 10.6494 3.42691 10.5739C3.60892 10.4985 3.77448 10.3877 3.91375 10.2484L3.94115 10.221C3.98733 10.1764 4.04571 10.1464 4.10891 10.135C4.17281 10.1234 4.23871 10.1312 4.29812 10.1574C4.30775 10.1617 4.31752 10.1656 4.32741 10.1693C4.38861 10.1918 4.44163 10.2322 4.47957 10.2852C4.51663 10.337 4.53763 10.3986 4.54 10.4622V10.5C4.54 10.8978 4.69804 11.2794 4.97934 11.5607C5.26064 11.842 5.64217 12 6.04 12C6.43783 12 6.81936 11.842 7.10066 11.5607C7.38196 11.2794 7.54 10.8978 7.54 10.5V10.4163C7.5404 10.3531 7.55917 10.2915 7.59403 10.2388C7.62902 10.186 7.67872 10.1446 7.73698 10.1196L7.74188 10.1174C7.80129 10.0912 7.86719 10.0834 7.93109 10.095C7.99428 10.1064 8.05265 10.1364 8.09883 10.1809L8.12645 10.2086C8.26571 10.3479 8.43108 10.4585 8.61309 10.5339C8.79519 10.6094 8.99038 10.6483 9.1875 10.6483C9.38462 10.6483 9.57981 10.6094 9.76191 10.5339C9.94392 10.4585 10.1093 10.3479 10.2486 10.2086C10.3879 10.0693 10.4985 9.90392 10.5739 9.72191C10.6494 9.53981 10.6883 9.34462 10.6883 9.1475C10.6883 8.95038 10.6494 8.75519 10.5739 8.57309C10.4985 8.39108 10.3877 8.22552 10.2484 8.08625L10.2209 8.05883C10.1764 8.01265 10.1464 7.95428 10.135 7.89109C10.1234 7.82719 10.1312 7.76129 10.1574 7.70188ZM5.64645 1.14645C5.74022 1.05268 5.86739 1 6 1C6.13261 1 6.25978 1.05268 6.35355 1.14645C6.44732 1.24022 6.5 1.36739 6.5 1.5V1.545L6.5 1.54699C6.50103 1.8054 6.5776 2.05786 6.72028 2.27331C6.86246 2.488 7.06412 2.6566 7.30056 2.75851C7.54213 2.86454 7.80988 2.89605 8.0695 2.84898C8.33 2.80175 8.5704 2.67758 8.75965 2.49245L8.79375 2.45836C8.84019 2.41187 8.89533 2.37499 8.95603 2.34983C9.01673 2.32466 9.08179 2.31171 9.1475 2.31171C9.21321 2.31171 9.27827 2.32466 9.33897 2.34983C9.39967 2.37499 9.45481 2.41187 9.50125 2.45836L9.50164 2.45875C9.54813 2.50519 9.58501 2.56033 9.61017 2.62103C9.63534 2.68173 9.64829 2.74679 9.64829 2.8125C9.64829 2.87821 9.63534 2.94327 9.61017 3.00397C9.58501 3.06467 9.54793 3.12001 9.50144 3.16645L9.47142 3.19643L9.46757 3.20037C9.28244 3.38963 9.15825 3.63 9.11102 3.8905C9.07001 4.11666 9.08864 4.34899 9.16422 4.5648C9.17015 4.61021 9.18231 4.65469 9.20043 4.69697C9.30223 4.93448 9.47125 5.13704 9.68669 5.27972C9.90214 5.4224 10.1546 5.49897 10.413 5.5L10.415 5.5H10.5C10.6326 5.5 10.7598 5.55268 10.8536 5.64645C10.9473 5.74022 11 5.86739 11 6C11 6.13261 10.9473 6.25978 10.8536 6.35355C10.7598 6.44732 10.6326 6.5 10.5 6.5L10.455 6.5L10.453 6.5C10.1946 6.50103 9.94214 6.5776 9.72669 6.72028C9.51198 6.86248 9.34337 7.06415 9.24147 7.30062C9.13545 7.54217 9.10395 7.8099 9.15102 8.0695C9.19825 8.33 9.32242 8.5704 9.50755 8.75965L9.54164 8.79375C9.58813 8.84018 9.62501 8.89533 9.65017 8.95603C9.67534 9.01673 9.68829 9.08179 9.68829 9.1475C9.68829 9.21321 9.67534 9.27827 9.65017 9.33897C9.62501 9.39967 9.58813 9.45481 9.54164 9.50125L9.54125 9.50164C9.49481 9.54813 9.43967 9.58501 9.37897 9.61017C9.31827 9.63534 9.25321 9.64829 9.1875 9.64829C9.12179 9.64829 9.05673 9.63534 8.99603 9.61017C8.93533 9.58501 8.87999 9.54793 8.83355 9.50145L8.80357 9.47143L8.79963 9.46757C8.61037 9.28244 8.37 9.15825 8.1095 9.11102C7.8499 9.06395 7.58217 9.09545 7.34062 9.20147C7.10415 9.30337 6.90248 9.47198 6.76028 9.68669C6.6176 9.90214 6.54103 10.1546 6.54 10.413L6.54 10.415V10.5C6.54 10.6326 6.48732 10.7598 6.39355 10.8536C6.29978 10.9473 6.17261 11 6.04 11C5.90739 11 5.78022 10.9473 5.68645 10.8536C5.59268 10.7598 5.54 10.6326 5.54 10.5V10.455L5.53986 10.4433C5.53365 10.1775 5.44761 9.91973 5.29294 9.70348C5.14133 9.49151 4.93066 9.32905 4.68738 9.23627C4.44898 9.13443 4.18581 9.10473 3.9305 9.15102C3.67 9.19825 3.4296 9.32242 3.24035 9.50755L3.20625 9.54164C3.15981 9.58813 3.10467 9.62501 3.04397 9.65017C2.98327 9.67534 2.91821 9.68829 2.8525 9.68829C2.78679 9.68829 2.72173 9.67534 2.66103 9.65017C2.60033 9.62501 2.54519 9.58813 2.49875 9.54164L2.49836 9.54125C2.45187 9.49481 2.41499 9.43967 2.38983 9.37897C2.36466 9.31827 2.35171 9.25321 2.35171 9.1875C2.35171 9.12179 2.36466 9.05673 2.38983 8.99603C2.41499 8.93533 2.45206 8.87999 2.49855 8.83355L2.52857 8.80358L2.53243 8.79963C2.71756 8.61037 2.84175 8.37 2.88898 8.1095C2.93605 7.84988 2.90454 7.58213 2.79851 7.34056C2.6966 7.10412 2.528 6.90246 2.31331 6.76028C2.09786 6.6176 1.8454 6.54103 1.58699 6.54H1.5C1.36739 6.54 1.24022 6.48732 1.14645 6.39355C1.05268 6.29978 1 6.17261 1 6.04C1 5.90739 1.05268 5.78022 1.14645 5.68645C1.24022 5.59268 1.36739 5.54 1.5 5.54H1.545L1.55669 5.53986C1.82249 5.53365 2.08027 5.44761 2.29652 5.29294C2.50849 5.14134 2.67094 4.93066 2.76373 4.68739C2.86556 4.44898 2.89527 4.18581 2.84898 3.9305C2.80175 3.67 2.67758 3.4296 2.49245 3.24035L2.45836 3.20625C2.41187 3.15981 2.37499 3.10467 2.34983 3.04397C2.32466 2.98327 2.31171 2.91821 2.31171 2.8525C2.31171 2.78679 2.32466 2.72173 2.34983 2.66103C2.37499 2.60033 2.41187 2.54519 2.45836 2.49875L2.45875 2.49836C2.50519 2.45187 2.56033 2.41499 2.62103 2.38983C2.68173 2.36466 2.74679 2.35171 2.8125 2.35171C2.87821 2.35171 2.94327 2.36466 3.00397 2.38983C3.06467 2.41499 3.12001 2.45206 3.16645 2.49855L3.19642 2.52857L3.20037 2.53243C3.38963 2.71756 3.63 2.84175 3.8905 2.88898C4.11666 2.92999 4.34899 2.91136 4.56481 2.83578C4.61021 2.82985 4.65469 2.81769 4.69697 2.79957C4.93448 2.69778 5.13704 2.52875 5.27972 2.31331C5.4224 2.09786 5.49897 1.8454 5.5 1.58699V1.5C5.5 1.36739 5.55268 1.24022 5.64645 1.14645Z" fill="white"/>
</svg>
