<svg width="20" height="20" viewBox="0 0 20 20" fill="none" xmlns="http://www.w3.org/2000/svg">
<path fill-rule="evenodd" clip-rule="evenodd" d="M1.0415 4.58329C1.0415 3.31764 2.06752 2.29163 3.33317 2.29163H16.6665C17.9322 2.29163 18.9582 3.31764 18.9582 4.58329V15.4166C18.9582 16.6823 17.9322 17.7083 16.6665 17.7083H3.33317C2.06752 17.7083 1.0415 16.6823 1.0415 15.4166V4.58329ZM6.6665 6.24996C5.74603 6.24996 4.99984 6.99615 4.99984 7.91663C4.99984 8.83713 5.74603 9.58329 6.6665 9.58329C7.58698 9.58329 8.33317 8.83713 8.33317 7.91663C8.33317 6.99615 7.58698 6.24996 6.6665 6.24996ZM9.74659 12.8925C8.6025 10.0414 4.645 10.2545 3.58646 12.8925C3.50919 13.085 3.53253 13.3035 3.64877 13.4753C3.76502 13.6472 3.959 13.7502 4.1665 13.7502H9.1665C9.374 13.7502 9.568 13.6472 9.68425 13.4753C9.8005 13.3035 9.82384 13.085 9.74659 12.8925ZM11.6665 6.45829C11.3213 6.45829 11.0415 6.73812 11.0415 7.08329C11.0415 7.42847 11.3213 7.70829 11.6665 7.70829H15.8332C16.1783 7.70829 16.4582 7.42847 16.4582 7.08329C16.4582 6.73812 16.1783 6.45829 15.8332 6.45829H11.6665ZM11.6665 9.37496C11.3213 9.37496 11.0415 9.65479 11.0415 9.99996C11.0415 10.3451 11.3213 10.625 11.6665 10.625H15.8332C16.1783 10.625 16.4582 10.3451 16.4582 9.99996C16.4582 9.65479 16.1783 9.37496 15.8332 9.37496H11.6665ZM11.6665 12.2916C11.3213 12.2916 11.0415 12.5715 11.0415 12.9166C11.0415 13.2618 11.3213 13.5416 11.6665 13.5416H13.7498C14.095 13.5416 14.3748 13.2618 14.3748 12.9166C14.3748 12.5715 14.095 12.2916 13.7498 12.2916H11.6665Z" fill="url(#paint0_linear_5132_110808)"/>
<defs>
<linearGradient id="paint0_linear_5132_110808" x1="-12.4412" y1="10.0886" x2="30.1787" y2="10.0886" gradientUnits="userSpaceOnUse">
<stop stop-color="#4B69FF"/>
<stop offset="0.258976" stop-color="#843BD7"/>
<stop offset="0.62" stop-color="#EE3E9C"/>
<stop offset="0.815" stop-color="#FF503C"/>
<stop offset="1" stop-color="#FF9C2E"/>
</linearGradient>
</defs>
</svg>
