<svg width="22" height="18" viewBox="0 0 22 18" fill="none" xmlns="http://www.w3.org/2000/svg">
<path fill-rule="evenodd" clip-rule="evenodd" d="M3 0.25C1.48122 0.25 0.25 1.48122 0.25 3V15C0.25 16.5188 1.48122 17.75 3 17.75H19C20.5188 17.75 21.75 16.5188 21.75 15V3C21.75 1.48122 20.5188 0.25 19 0.25H3ZM2.75 13C2.75 10.7915 4.25722 8.935 6.29916 8.4031C5.66868 8.0044 5.25 7.3011 5.25 6.5C5.25 5.25736 6.25736 4.25 7.5 4.25C8.74264 4.25 9.75 5.25736 9.75 6.5C9.75 7.3011 9.3313 8.0044 8.70084 8.4031C10.7428 8.935 12.25 10.7915 12.25 13C12.25 13.4142 11.9142 13.75 11.5 13.75H3.5C3.08579 13.75 2.75 13.4142 2.75 13ZM13.25 6C13.25 5.44771 13.6977 5 14.25 5H18.25C18.8023 5 19.25 5.44771 19.25 6C19.25 6.55229 18.8023 7 18.25 7H14.25C13.6977 7 13.25 6.55229 13.25 6ZM14.25 8.5C13.6977 8.5 13.25 8.9477 13.25 9.5C13.25 10.0523 13.6977 10.5 14.25 10.5H18.25C18.8023 10.5 19.25 10.0523 19.25 9.5C19.25 8.9477 18.8023 8.5 18.25 8.5H14.25Z" fill="#A9A9AF"/>
</svg>
