<svg width="20" height="20" viewBox="0 0 20 20" fill="none" xmlns="http://www.w3.org/2000/svg">
<path fill-rule="evenodd" clip-rule="evenodd" d="M3.95817 1.66675C2.69252 1.66675 1.6665 2.69276 1.6665 3.95841V16.4584C1.6665 17.7241 2.69252 18.7501 3.95817 18.7501H16.4582C17.7238 18.7501 18.7498 17.7241 18.7498 16.4584V3.95841C18.7498 2.69276 17.7238 1.66675 16.4582 1.66675H3.95817ZM9.28684 6.50241C9.14567 6.22008 8.85717 6.04175 8.5415 6.04175C8.22586 6.04175 7.9373 6.22008 7.79615 6.50241L6.35981 9.37508H5.20817C4.74794 9.37508 4.37484 9.74817 4.37484 10.2084C4.37484 10.6687 4.74794 11.0417 5.20817 11.0417H6.87484C7.19048 11.0417 7.47904 10.8634 7.6202 10.5811L8.5415 8.7385L11.1295 13.9144C11.2707 14.1967 11.5592 14.3751 11.8748 14.3751C12.1905 14.3751 12.479 14.1967 12.6202 13.9144L14.0565 11.0417H15.2082C15.6684 11.0417 16.0415 10.6687 16.0415 10.2084C16.0415 9.74817 15.6684 9.37508 15.2082 9.37508H13.5415C13.2258 9.37508 12.9373 9.55342 12.7962 9.83575L11.8748 11.6783L9.28684 6.50241Z" fill="black"/>
</svg>
