<svg width="22" height="22" viewBox="0 0 22 22" fill="none" xmlns="http://www.w3.org/2000/svg">
<path d="M18.5 0.75C20.0188 0.75 21.25 1.98122 21.25 3.5V18.5C21.25 20.0188 20.0188 21.25 18.5 21.25H3.5C1.98122 21.25 0.75 20.0188 0.75 18.5V3.5C0.75 1.98122 1.98122 0.75 3.5 0.75H18.5ZM11 6C10.4477 6 9.99997 6.44772 9.99997 7V10H7C6.44772 10 6 10.4477 6 11C6 11.5523 6.44772 12 7 12H9.99997V15C9.99997 15.5523 10.4477 16 11 16C11.5523 16 12 15.5523 12 15V12H15C15.5523 12 16 11.5523 16 11C16 10.4477 15.5523 10 15 10H12V7C12 6.44772 11.5523 6 11 6Z" fill="#18181B"/>
</svg>
