<svg width="40" height="40" viewBox="0 0 40 40" fill="none" xmlns="http://www.w3.org/2000/svg">
<path d="M19.9834 3.31055C20.8679 3.31055 21.7368 3.54494 22.501 3.99023C23.2641 4.43494 23.896 5.07374 24.332 5.8418L24.333 5.84473L37.6602 29.167C37.6607 29.1679 37.6616 29.169 37.6621 29.1699C38.0995 29.9289 38.3299 30.79 38.3301 31.666C38.3302 32.5431 38.0993 33.4052 37.6611 34.165C37.2229 34.9248 36.5923 35.556 35.833 35.9951C35.0737 36.4342 34.2121 36.6661 33.335 36.667H6.67383C5.79515 36.6735 4.93002 36.4479 4.16602 36.0137C3.39966 35.5781 2.76155 34.948 2.31738 34.1865C1.87323 33.4251 1.63867 32.5592 1.63672 31.6777C1.63482 30.7977 1.86529 29.9324 2.30469 29.1699C2.30527 29.1689 2.30606 29.168 2.30664 29.167L15.6338 5.84473L15.6348 5.8418C16.0708 5.07374 16.7027 4.43493 17.4658 3.99023C18.23 3.54494 19.0989 3.31055 19.9834 3.31055ZM19.9834 6.64355C19.6887 6.64355 19.3992 6.72179 19.1445 6.87012C18.8899 7.01852 18.6786 7.23186 18.5332 7.48828L18.5303 7.49414L5.19336 30.834C5.04655 31.0884 4.96908 31.3772 4.96973 31.6709C4.97042 31.9647 5.04925 32.2531 5.19727 32.5068C5.34532 32.7606 5.55806 32.971 5.81348 33.1162C6.06874 33.2612 6.35781 33.3366 6.65137 33.334L6.66699 33.333L33.332 33.334C33.6243 33.3336 33.9111 33.2557 34.1641 33.1094C34.4172 32.963 34.6274 32.7523 34.7734 32.499C34.9195 32.2458 34.9971 31.9584 34.9971 31.666C34.9969 31.3739 34.9194 31.087 34.7734 30.834L34.7695 30.8271L21.4365 7.49414L21.4336 7.48828C21.2882 7.23185 21.077 7.01852 20.8223 6.87012C20.5676 6.72178 20.2781 6.64356 19.9834 6.64355ZM20.0166 26.667C20.9371 26.667 21.6836 27.4135 21.6836 28.334C21.6834 29.2543 20.9369 30 20.0166 30H20C19.0797 30 18.3332 29.2542 18.333 28.334C18.333 27.4135 19.0795 26.667 20 26.667H20.0166ZM20 13.334C20.9204 13.334 21.6669 14.0796 21.667 15V21.667C21.6669 22.5874 20.9204 23.334 20 23.334C19.0796 23.334 18.3331 22.5874 18.333 21.667V15C18.3331 14.0796 19.0796 13.334 20 13.334Z" fill="black"/>
</svg>
