<svg width="16" height="16" viewBox="0 0 16 16" fill="none" xmlns="http://www.w3.org/2000/svg">
<path d="M8.5625 13.6572C8.75194 13.3415 9.16085 13.2393 9.47656 13.4287C9.79227 13.6181 9.89449 14.0271 9.70508 14.3428C9.12928 15.3024 7.91208 15.6536 6.96387 15.0215L6.95117 15.0127C6.85988 14.9519 6.72453 14.8619 6.60449 14.7539C6.47429 14.6367 6.31777 14.4611 6.23438 14.2109C6.11794 13.8616 6.30695 13.4836 6.65625 13.3672C6.99348 13.2548 7.35687 13.4275 7.48633 13.7539C7.48891 13.7564 7.49227 13.7592 7.49609 13.7627C7.51317 13.7781 7.5379 13.7982 7.57422 13.8242C7.61119 13.8507 7.65153 13.8777 7.70312 13.9121C7.95492 14.08 8.3383 14.0309 8.5625 13.6572ZM8 0.666992C10.5681 0.666992 12.6668 2.76497 12.667 5.33301C12.667 7.5679 13.1454 8.95596 13.5859 9.76367C13.8071 10.1692 14.0223 10.4358 14.1719 10.5938C14.2467 10.6727 14.3053 10.7253 14.3408 10.7549C14.3584 10.7695 14.3707 10.7783 14.376 10.7822L14.3779 10.7842C14.6168 10.9483 14.7228 11.2483 14.6387 11.5264C14.5535 11.8075 14.2938 12 14 12H2C1.7064 11.9998 1.44739 11.8074 1.3623 11.5264C1.27817 11.2482 1.38414 10.9483 1.62305 10.7842L1.625 10.7822C1.63023 10.7783 1.64186 10.7693 1.65918 10.7549C1.69465 10.7253 1.75413 10.6729 1.8291 10.5938C1.97872 10.4358 2.19384 10.1692 2.41504 9.76367C2.85555 8.95595 3.33398 7.56786 3.33398 5.33301C3.33416 2.76511 5.43212 0.667233 8 0.666992ZM8 2C6.1685 2.00024 4.66717 3.50149 4.66699 5.33301C4.66699 7.76435 4.14533 9.37668 3.58594 10.4023C3.53521 10.4954 3.48432 10.5839 3.43359 10.667H12.5674C12.5167 10.5839 12.4658 10.4954 12.415 10.4023C11.8556 9.37668 11.334 7.76439 11.334 5.33301C11.3338 3.50135 9.8317 2 8 2Z" fill="#18181B"/>
</svg>
