<svg width="16" height="16" viewBox="0 0 16 16" fill="none" xmlns="http://www.w3.org/2000/svg">
<path fill-rule="evenodd" clip-rule="evenodd" d="M8.03013 1.5C9.25447 1.49999 10.2143 1.49999 10.9757 1.58249C11.7527 1.66667 12.3823 1.84155 12.9199 2.2321C13.2453 2.46854 13.5315 2.75473 13.7679 3.08016C14.1585 3.61771 14.3333 4.24729 14.4175 5.02432C14.5 5.78573 14.5 6.8058 14.5 8.03013C14.5 9.25447 14.5 10.2143 14.4175 10.9757C14.3333 11.7527 14.1585 12.3823 13.7679 12.9199C13.5315 13.2453 13.2453 13.5315 12.9199 13.7679C12.3823 14.1585 11.7527 14.3333 10.9757 14.4175C10.2143 14.5 9.1942 14.5 7.96987 14.5C6.74553 14.5 5.78573 14.5 5.02432 14.4175C4.24729 14.3333 3.61771 14.1585 3.08016 13.7679C2.75473 13.5315 2.46854 13.2453 2.2321 12.9199C1.84155 12.3823 1.66667 11.7527 1.58249 10.9757C1.49999 10.2143 1.49999 9.25453 1.5 8.0302C1.49999 6.80587 1.49999 5.78574 1.58249 5.02432C1.66667 4.24729 1.84155 3.61771 2.2321 3.08016C2.46854 2.75473 2.75473 2.46854 3.08016 2.2321C3.61771 1.84155 4.24729 1.66667 5.02432 1.58249C5.78574 1.49999 6.8058 1.49999 8.03013 1.5ZM4.1617 4.23143C4.40209 3.95253 4.82304 3.92132 5.10193 4.1617L5.94432 4.88777C6.09434 5.01699 6.25373 5.15427 6.37029 5.28594C6.50207 5.43481 6.66667 5.67108 6.66667 6.00001C6.66667 6.32894 6.50207 6.56521 6.37029 6.71407C6.25374 6.84573 6.09435 6.983 5.94434 7.11227L5.10193 7.83833C4.82304 8.07873 4.40209 8.04747 4.1617 7.7686C3.92132 7.48973 3.95253 7.06873 4.23143 6.8284L5.04912 6.12357C5.1035 6.07671 5.15038 6.03627 5.19173 6.00001C5.15038 5.96375 5.1035 5.92332 5.04912 5.87645L4.23143 5.17165C3.95253 4.93127 3.92132 4.51031 4.1617 4.23143ZM8 6.66667C7.6318 6.66667 7.33333 6.96513 7.33333 7.33333C7.33333 7.70153 7.6318 8 8 8H10C10.3682 8 10.6667 7.70153 10.6667 7.33333C10.6667 6.96513 10.3682 6.66667 10 6.66667H8Z" fill="#18181B"/>
</svg>
