<svg width="14" height="14" viewBox="0 0 14 14" fill="none" xmlns="http://www.w3.org/2000/svg">
<path fill-rule="evenodd" clip-rule="evenodd" d="M1.99988 0.166672C0.987344 0.166645 0.166504 0.987465 0.166504 2.00001V11.9999C0.166504 13.0125 0.987317 13.8333 1.99984 13.8333H11.9998C13.0124 13.8333 13.8332 13.0125 13.8332 12V2.00027C13.8332 0.987758 13.0124 0.166958 11.9999 0.166932L1.99988 0.166672ZM4.99984 3.66667C4.26346 3.66667 3.6665 4.26362 3.6665 5V5.79814L3.1118 6.6302C2.96252 6.85414 2.96252 7.14587 3.1118 7.3698L3.6665 8.20187V9C3.6665 9.7364 4.26346 10.3333 4.99984 10.3333H5.33317C5.70137 10.3333 5.99984 10.0349 5.99984 9.66667C5.99984 9.29847 5.70137 9 5.33317 9H4.99984V8.20187C4.99984 7.9386 4.92192 7.68127 4.7759 7.46227L4.46774 7L4.7759 6.53774C4.92192 6.31874 4.99984 6.0614 4.99984 5.79814V5H5.33317C5.70137 5 5.99984 4.70152 5.99984 4.33334C5.99984 3.96515 5.70137 3.66667 5.33317 3.66667H4.99984ZM8.6665 3.66667C8.2983 3.66667 7.99984 3.96515 7.99984 4.33334C7.99984 4.70152 8.2983 5 8.6665 5H8.99984V5.79814C8.99984 6.0614 9.07777 6.31874 9.22377 6.53774L9.5319 7L9.22377 7.46227C9.07777 7.68127 8.99984 7.9386 8.99984 8.20187V9H8.6665C8.2983 9 7.99984 9.29847 7.99984 9.66667C7.99984 10.0349 8.2983 10.3333 8.6665 10.3333H8.99984C9.73624 10.3333 10.3332 9.7364 10.3332 9V8.20187L10.8879 7.3698C11.0372 7.14587 11.0372 6.85414 10.8879 6.6302L10.3332 5.79814V5C10.3332 4.26362 9.73624 3.66667 8.99984 3.66667H8.6665Z" fill="#717179"/>
</svg>
