<svg width="20" height="20" viewBox="0 0 20 20" fill="none" xmlns="http://www.w3.org/2000/svg">
<path d="M10 1.0415C13.1536 1.0415 16.0093 2.05456 17.9085 3.69287C18.0462 3.8116 18.125 3.98474 18.125 4.1665V9.16649L18.1193 9.50015C17.9984 12.9173 16.0313 15.2667 14.1333 16.743C13.152 17.5062 12.1742 18.0494 11.4428 18.4015C11.0788 18.5768 10.4232 18.837 10.2018 18.9248L10.1978 18.9264C10.0695 18.9692 9.9305 18.9692 9.80225 18.9264L9.79817 18.9248C9.57675 18.8369 8.92108 18.5768 8.55717 18.4015C7.82578 18.0494 6.84725 17.5063 5.86588 16.743C3.90678 15.2192 1.875 12.7648 1.875 9.16649V4.1665C1.875 3.98474 1.95384 3.8116 2.09147 3.69287C3.99067 2.05456 6.8464 1.0415 10 1.0415ZM10 5.20817C8.73433 5.20817 7.70833 6.23418 7.70833 7.49984C7.70833 8.54849 8.41358 9.42965 9.375 9.70199V13.3332C9.375 13.6783 9.65483 13.9582 10 13.9582H11.6667C12.0118 13.9582 12.2917 13.6783 12.2917 13.3332C12.2917 12.988 12.0118 12.7082 11.6667 12.7082H10.625V11.8748H11.25C11.5952 11.8748 11.875 11.595 11.875 11.2498C11.875 10.9047 11.5952 10.6248 11.25 10.6248H10.625V9.70199C11.5864 9.42965 12.2917 8.54849 12.2917 7.49984C12.2917 6.23418 11.2657 5.20817 10 5.20817ZM10 6.45817C10.5753 6.45817 11.0417 6.92454 11.0417 7.49984C11.0417 8.07513 10.5753 8.54149 10 8.54149C9.42467 8.54149 8.95833 8.07513 8.95833 7.49984C8.95833 6.92454 9.42467 6.45817 10 6.45817Z" fill="url(#paint0_linear_5132_110864)"/>
<defs>
<linearGradient id="paint0_linear_5132_110864" x1="-10.3535" y1="10.103" x2="28.3018" y2="10.103" gradientUnits="userSpaceOnUse">
<stop stop-color="#4B69FF"/>
<stop offset="0.258976" stop-color="#843BD7"/>
<stop offset="0.62" stop-color="#EE3E9C"/>
<stop offset="0.815" stop-color="#FF503C"/>
<stop offset="1" stop-color="#FF9C2E"/>
</linearGradient>
</defs>
</svg>
