<svg width="21" height="20" viewBox="0 0 21 20" fill="none" xmlns="http://www.w3.org/2000/svg">
<path d="M17.6665 15.6251C17.9886 15.6251 18.2504 15.886 18.2505 16.2081V18.1251C18.2504 18.4701 17.9704 18.7499 17.6255 18.7501H2.62549C2.2804 18.7501 2.00061 18.4702 2.00049 18.1251V16.2081C2.00058 15.886 2.2614 15.6251 2.5835 15.6251H17.6665ZM8.25049 14.3751H3.6665V9.37122H8.25049V14.3751ZM16.5835 14.3751H12.0005V9.37122H16.5835V14.3751ZM9.82178 0.912231C10.0105 0.807399 10.2395 0.80747 10.4282 0.912231L17.9282 5.07825C18.1266 5.18848 18.2505 5.39814 18.2505 5.62512V7.53723C18.2505 7.8594 17.9887 8.12122 17.6665 8.12122H2.5835C2.26134 8.12121 2.00049 7.85939 2.00049 7.53723V5.62512C2.00049 5.39814 2.12336 5.18848 2.32178 5.07825L9.82178 0.912231ZM10.1216 4.79114C9.66149 4.79133 9.28857 5.16501 9.28857 5.62512C9.28871 6.08512 9.66158 6.45794 10.1216 6.45813H10.1294C10.5896 6.45813 10.9623 6.08524 10.9624 5.62512C10.9624 5.16489 10.5896 4.79114 10.1294 4.79114H10.1216Z" fill="url(#paint0_linear_5132_110818)"/>
<defs>
<linearGradient id="paint0_linear_5132_110818" x1="-10.228" y1="9.89433" x2="28.4273" y2="9.89433" gradientUnits="userSpaceOnUse">
<stop stop-color="#4B69FF"/>
<stop offset="0.258976" stop-color="#843BD7"/>
<stop offset="0.62" stop-color="#EE3E9C"/>
<stop offset="0.815" stop-color="#FF503C"/>
<stop offset="1" stop-color="#FF9C2E"/>
</linearGradient>
</defs>
</svg>
