<svg width="16" height="16" viewBox="0 0 16 16" fill="none" xmlns="http://www.w3.org/2000/svg">
<path d="M1.99935 2.66602C1.99935 2.30087 2.30087 1.99935 2.66602 1.99935H8.66602C9.03116 1.99935 9.33268 2.30087 9.33268 2.66602V3.33268C9.33268 3.70087 9.63116 3.99935 9.99935 3.99935C10.3675 3.99935 10.666 3.70087 10.666 3.33268V2.66602C10.666 1.56449 9.76754 0.666016 8.66602 0.666016H2.66602C1.56449 0.666016 0.666016 1.56449 0.666016 2.66602V8.66602C0.666016 9.76754 1.56449 10.666 2.66602 10.666H3.33268C3.70087 10.666 3.99935 10.3675 3.99935 9.99935C3.99935 9.63116 3.70087 9.33268 3.33268 9.33268H2.66602C2.30087 9.33268 1.99935 9.03116 1.99935 8.66602V2.66602Z" fill="#1E2132"/>
<path fill-rule="evenodd" clip-rule="evenodd" d="M7.33268 5.33268C6.23116 5.33268 5.33268 6.23116 5.33268 7.33268V13.3327C5.33268 14.4342 6.23116 15.3327 7.33268 15.3327H13.3327C14.4342 15.3327 15.3327 14.4342 15.3327 13.3327V7.33268C15.3327 6.23116 14.4342 5.33268 13.3327 5.33268H7.33268ZM6.66602 7.33268C6.66602 6.96754 6.96754 6.66602 7.33268 6.66602H13.3327C13.6978 6.66602 13.9993 6.96754 13.9993 7.33268V13.3327C13.9993 13.6978 13.6978 13.9993 13.3327 13.9993H7.33268C6.96754 13.9993 6.66602 13.6978 6.66602 13.3327V7.33268Z" fill="#1E2132"/>
</svg>
