<svg width="14" height="16" viewBox="0 0 14 16" fill="none" xmlns="http://www.w3.org/2000/svg">
<path fill-rule="evenodd" clip-rule="evenodd" d="M10.3333 1.33329C10.3333 0.965103 10.0348 0.666626 9.66659 0.666626C9.2984 0.666626 8.99992 0.965103 8.99992 1.33329V1.99996H4.99992V1.33329C4.99992 0.965103 4.70144 0.666626 4.33325 0.666626C3.96506 0.666626 3.66659 0.965103 3.66659 1.33329V1.99996H2.33325C1.23173 1.99996 0.333252 2.89844 0.333252 3.99996V13.3333C0.333252 14.4348 1.23173 15.3333 2.33325 15.3333H11.6666C12.7681 15.3333 13.6666 14.4348 13.6666 13.3333V3.99996C13.6666 2.89844 12.7681 1.99996 11.6666 1.99996H10.3333V1.33329ZM12.3333 5.99996V3.99996C12.3333 3.63482 12.0317 3.33329 11.6666 3.33329H10.3333V3.99996C10.3333 4.36815 10.0348 4.66663 9.66659 4.66663C9.2984 4.66663 8.99992 4.36815 8.99992 3.99996V3.33329H4.99992V3.99996C4.99992 4.36815 4.70144 4.66663 4.33325 4.66663C3.96506 4.66663 3.66659 4.36815 3.66659 3.99996V3.33329H2.33325C1.96811 3.33329 1.66659 3.63482 1.66659 3.99996V5.99996H12.3333ZM1.66659 7.33329H12.3333V13.3333C12.3333 13.6984 12.0317 14 11.6666 14H2.33325C1.96811 14 1.66659 13.6984 1.66659 13.3333V7.33329Z" fill="#fff"/>
</svg>
