<svg width="21" height="20" viewBox="0 0 21 20" fill="none" xmlns="http://www.w3.org/2000/svg">
<path fill-rule="evenodd" clip-rule="evenodd" d="M1.5 4.79167C1.5 3.52602 2.52602 2.5 3.79167 2.5H17.125C18.3907 2.5 19.4167 3.52602 19.4167 4.79167V6.66667H1.5V4.79167ZM1.5 7.91667H19.4167V14.7917C19.4167 16.0573 18.3907 17.0833 17.125 17.0833H3.79167C2.52602 17.0833 1.5 16.0573 1.5 14.7917V7.91667ZM8.79167 12.5C8.44649 12.5 8.16667 12.7798 8.16667 13.125C8.16667 13.4702 8.44649 13.75 8.79167 13.75H10.0417C10.3868 13.75 10.6667 13.4702 10.6667 13.125C10.6667 12.7798 10.3868 12.5 10.0417 12.5H8.79167ZM12.5417 12.5C12.1965 12.5 11.9167 12.7798 11.9167 13.125C11.9167 13.4702 12.1965 13.75 12.5417 13.75H15.4583C15.8035 13.75 16.0833 13.4702 16.0833 13.125C16.0833 12.7798 15.8035 12.5 15.4583 12.5H12.5417Z" fill="url(#paint0_linear_5132_110832)"/>
<defs>
<linearGradient id="paint0_linear_5132_110832" x1="-11.9827" y1="9.87548" x2="30.6372" y2="9.87548" gradientUnits="userSpaceOnUse">
<stop stop-color="#4B69FF"/>
<stop offset="0.258976" stop-color="#843BD7"/>
<stop offset="0.62" stop-color="#EE3E9C"/>
<stop offset="0.815" stop-color="#FF503C"/>
<stop offset="1" stop-color="#FF9C2E"/>
</linearGradient>
</defs>
</svg>
