<svg width="16" height="16" viewBox="0 0 16 16" fill="none" xmlns="http://www.w3.org/2000/svg">
<path fill-rule="evenodd" clip-rule="evenodd" d="M0.833589 2.66665C0.833596 1.65413 1.65441 0.833328 2.66692 0.833328H12.0002C13.0127 0.833328 13.8335 1.65414 13.8335 2.66666V4.994C13.8335 5.13585 13.6896 5.23302 13.5546 5.18977C13.1696 5.06653 12.7594 4.99999 12.3336 4.99999C10.1244 4.99999 8.33356 6.79086 8.33356 8.99999C8.33356 9.87106 8.61203 10.6771 9.08476 11.334C9.12076 11.3841 9.1335 11.4474 9.11763 11.507L8.38983 14.2374C8.33096 14.4582 8.31916 14.6836 8.3501 14.9011C8.36916 15.0349 8.27283 15.1667 8.13776 15.1667H2.66683C1.6543 15.1667 0.833489 14.3459 0.833496 13.3333L0.833589 2.66665ZM4.64079 4.83333C4.36464 4.83333 4.14079 5.05719 4.14079 5.33333C4.14079 5.60947 4.36464 5.83333 4.64079 5.83333H8.7275C9.00363 5.83333 9.2275 5.60947 9.2275 5.33333C9.2275 5.05719 9.00363 4.83333 8.7275 4.83333H4.64079ZM4.64079 8.16666C4.36464 8.16666 4.14079 8.39053 4.14079 8.66666C4.14079 8.94279 4.36464 9.16666 4.64079 9.16666H6.06084C6.33699 9.16666 6.56084 8.94279 6.56084 8.66666C6.56084 8.39053 6.33699 8.16666 6.06084 8.16666H4.64079Z" fill="#717179"/>
<path fill-rule="evenodd" clip-rule="evenodd" d="M9.50001 9.00001C9.50001 7.43521 10.7685 6.16667 12.3333 6.16667C13.8981 6.16667 15.1667 7.43521 15.1667 9.00001C15.1667 9.83354 14.8067 10.583 14.2338 11.1015L15.1498 14.5379C15.2018 14.7328 15.1315 14.9398 14.9717 15.0629C14.8119 15.1859 14.5937 15.2009 14.4186 15.1008L12.3333 13.9092L10.2481 15.1008C10.0729 15.2009 9.85488 15.1859 9.69501 15.0629C9.53521 14.9398 9.46495 14.7328 9.51688 14.5379L10.4329 11.1015C9.85995 10.583 9.50001 9.83354 9.50001 9.00001ZM11.3223 11.6476L10.7915 13.6385L12.0853 12.8992C12.239 12.8114 12.4277 12.8114 12.5814 12.8992L13.8752 13.6385L13.3445 11.6476C13.0305 11.7676 12.6896 11.8333 12.3333 11.8333C11.9771 11.8333 11.6363 11.7676 11.3223 11.6476Z" fill="#717179"/>
</svg>
