<svg width="16" height="16" viewBox="0 0 16 16" fill="none" xmlns="http://www.w3.org/2000/svg">
<path fill-rule="evenodd" clip-rule="evenodd" d="M7.83366 15C3.87562 15 0.666992 11.7914 0.666992 7.83329C0.666992 3.87525 3.87562 0.666626 7.83366 0.666626C11.7917 0.666626 15.0003 3.87525 15.0003 7.83329C15.0003 11.7914 11.7917 15 7.83366 15ZM11.0125 6.26008C11.2482 5.97723 11.21 5.55685 10.9271 5.32114C10.6443 5.08543 10.2239 5.12365 9.98819 5.4065L7.12219 8.84569L5.6384 7.36189C5.37805 7.10156 4.95594 7.10156 4.69559 7.36189C4.43524 7.62223 4.43524 8.04436 4.69559 8.30469L6.69559 10.3047C6.82806 10.4372 7.01006 10.5078 7.19719 10.4993C7.38433 10.4908 7.55926 10.404 7.67912 10.2601L11.0125 6.26008Z" fill="#13BF3E"/>
</svg>
