<svg width="16" height="16" viewBox="0 0 16 16" fill="none" xmlns="http://www.w3.org/2000/svg">
<g clip-path="url(#clip0_5179_1838)">
<path fill-rule="evenodd" clip-rule="evenodd" d="M8.00033 2C4.68662 2 2.00033 4.68629 2.00033 8C2.00033 11.3137 4.68662 14 8.00033 14C11.314 14 14.0003 11.3137 14.0003 8C14.0003 4.68629 11.314 2 8.00033 2ZM0.666992 8C0.666992 3.94991 3.95024 0.666666 8.00033 0.666666C12.0504 0.666666 15.3337 3.94991 15.3337 8C15.3337 12.0501 12.0504 15.3333 8.00033 15.3333C3.95024 15.3333 0.666992 12.0501 0.666992 8ZM8.1724 5.34954C7.86206 5.29631 7.54288 5.35463 7.27142 5.51418C6.99995 5.67372 6.79371 5.92419 6.68922 6.22123C6.56703 6.56855 6.18642 6.75107 5.8391 6.62889C5.49177 6.50671 5.30925 6.1261 5.43144 5.77877C5.64042 5.1847 6.0529 4.68375 6.59584 4.36467C7.13878 4.04558 7.77712 3.92894 8.39781 4.0354C9.01851 4.14187 9.58149 4.46457 9.98706 4.94635C10.3925 5.42803 10.6145 6.03765 10.6137 6.66727C10.6134 7.68751 9.85695 8.36126 9.31679 8.72137C9.02637 8.91498 8.74069 9.05734 8.53025 9.15087C8.42408 9.19806 8.33468 9.23387 8.27026 9.25841C8.23799 9.2707 8.21183 9.28023 8.19279 9.287L8.16964 9.2951L8.16226 9.29762L8.15967 9.2985L8.15865 9.29884C8.15844 9.29891 8.15781 9.29912 7.94699 8.66667L8.15781 9.29912C7.80851 9.41555 7.43097 9.22678 7.31454 8.87748C7.19814 8.5283 7.38675 8.15089 7.73582 8.03433L7.74611 8.03071C7.75637 8.02706 7.77318 8.02097 7.7956 8.01242C7.84055 7.9953 7.9074 7.96861 7.98873 7.93246C8.15329 7.85932 8.36761 7.75168 8.57719 7.61197C9.03693 7.30548 9.28032 6.97942 9.28032 6.66667L9.28033 6.66567C9.2808 6.35079 9.16981 6.04591 8.96703 5.80502C8.76424 5.56413 8.48275 5.40278 8.1724 5.34954ZM7.33366 11.3333C7.33366 10.9651 7.63213 10.6667 8.00033 10.6667H8.00699C8.37518 10.6667 8.67366 10.9651 8.67366 11.3333C8.67366 11.7015 8.37518 12 8.00699 12H8.00033C7.63213 12 7.33366 11.7015 7.33366 11.3333Z" fill="#18181B"/>
</g>
<defs>
<clipPath id="clip0_5179_1838">
<rect width="16" height="16" fill="white"/>
</clipPath>
</defs>
</svg>
