<svg width="12" height="12" viewBox="0 0 12 12" fill="none" xmlns="http://www.w3.org/2000/svg">
<path d="M8.125 5.25V3.875H6.75C6.47386 3.875 6.25 3.65114 6.25 3.375C6.25 3.09886 6.47386 2.875 6.75 2.875H8.125V1.5C8.125 1.22386 8.34886 1 8.625 1C8.90114 1 9.125 1.22386 9.125 1.5V2.875H10.5C10.7761 2.875 11 3.09886 11 3.375C11 3.65114 10.7761 3.875 10.5 3.875H9.125V5.25C9.125 5.52614 8.90114 5.75 8.625 5.75C8.34886 5.75 8.125 5.52614 8.125 5.25Z" fill="#18181B"/>
<path d="M2 2V4.75H4.75V2H2ZM5.75 4.75C5.75 5.30229 5.30229 5.75 4.75 5.75H2C1.44772 5.75 1 5.3023 1 4.75V2C1 1.44772 1.44772 1 2 1H4.75C5.3023 1 5.75 1.44772 5.75 2V4.75Z" fill="#18181B"/>
<path d="M2 7.25V10H4.75V7.25H2ZM5.75 10C5.75 10.5523 5.30229 11 4.75 11H2C1.44772 11 1 10.5523 1 10V7.25C1 6.6977 1.44772 6.25 2 6.25H4.75C5.30229 6.25 5.75 6.69771 5.75 7.25V10Z" fill="#18181B"/>
<path d="M7.25 7.25V10H10V7.25H7.25ZM11 10C11 10.5523 10.5523 11 10 11H7.25C6.69771 11 6.25 10.5523 6.25 10V7.25C6.25 6.69771 6.69771 6.25 7.25 6.25H10C10.5523 6.25 11 6.69771 11 7.25V10Z" fill="#18181B"/>
</svg>
