<svg width="12" height="12" viewBox="0 0 12 12" fill="none" xmlns="http://www.w3.org/2000/svg">
<path d="M10 0.5C10.2761 0.5 10.5 0.723858 10.5 1V9C10.5 9.27614 10.2761 9.5 10 9.5H9.95898C9.94259 9.51911 9.92234 9.53795 9.90527 9.56152C9.81921 9.68043 9.75 9.82924 9.75 10C9.75 10.1708 9.81918 10.3205 9.90527 10.4395C9.92206 10.4626 9.94187 10.4812 9.95801 10.5H10C10.2761 10.5 10.5 10.7239 10.5 11C10.5 11.2761 10.2761 11.5 10 11.5H3C2.17158 11.5 1.5 10.8284 1.5 10V2C1.5 1.17157 2.17157 0.5 3 0.5H10ZM3 9.5C2.72385 9.5 2.5 9.72385 2.5 10C2.5 10.2762 2.72385 10.5 3 10.5H8.8291C8.78179 10.3508 8.75 10.1837 8.75 10C8.75 9.81629 8.78179 9.64924 8.8291 9.5H3ZM3 1.5C2.72386 1.5 2.5 1.72386 2.5 2V8.58691C2.65653 8.53153 2.8245 8.5 3 8.5H9.5V1.5H8V5C8 5.20221 7.87821 5.38451 7.69141 5.46191C7.50457 5.5393 7.28948 5.49651 7.14648 5.35352L6 4.20703L4.85352 5.35352C4.71052 5.49651 4.49543 5.5393 4.30859 5.46191C4.12179 5.38451 4 5.20221 4 5V1.5H3ZM5 3.79297L5.64648 3.14648L5.68457 3.1123C5.88096 2.95213 6.17046 2.96343 6.35352 3.14648L7 3.79297V1.5H5V3.79297Z" fill="#18181B"/>
</svg>
