<svg width="16" height="16" viewBox="0 0 16 16" fill="none" xmlns="http://www.w3.org/2000/svg">
<path d="M13.2519 0.836505C13.5785 0.870092 13.8333 1.14778 13.8333 1.48495V11.9088C13.8333 12.2686 13.5428 12.5605 13.1848 12.5605H13.125C13.1048 12.5845 13.0829 12.6107 13.0618 12.6399C12.9502 12.7949 12.8613 12.9896 12.8613 13.2122C12.8613 13.4346 12.9503 13.6289 13.0618 13.7838C13.0829 13.8131 13.1047 13.8398 13.125 13.8639H13.1848C13.5428 13.8639 13.8332 14.1552 13.8333 14.5149C13.8333 14.8747 13.5428 15.1666 13.1848 15.1666H4.11129C3.03744 15.1666 2.16669 14.2916 2.16663 13.2122V2.78768C2.16669 1.70827 3.03744 0.833252 4.11129 0.833252H13.1848L13.2519 0.836505ZM4.11129 12.5598C3.75333 12.5598 3.46285 12.8517 3.46285 13.2115C3.46295 13.5713 3.75339 13.8625 4.11129 13.8625H11.6666C11.6054 13.6683 11.5651 13.4507 11.5651 13.2115C11.5651 12.9722 11.6054 12.7542 11.6666 12.5598H4.11129ZM5.99996 1.99992V6.66658L7.99996 4.66658L9.99996 6.66658V1.99992H5.99996Z" fill="#18181B"/>
</svg>
