<svg width="16" height="16" viewBox="0 0 16 16" fill="none" xmlns="http://www.w3.org/2000/svg">
<path d="M8.66683 1.99992C8.66683 1.63173 8.36835 1.33325 8.00016 1.33325C7.63197 1.33325 7.3335 1.63173 7.3335 1.99992V8.39044L5.13823 6.19518C4.87788 5.93483 4.45577 5.93483 4.19543 6.19518C3.93508 6.45553 3.93508 6.87764 4.19543 7.13799L7.52828 10.4708L7.53313 10.4757C7.59603 10.5374 7.66813 10.5842 7.74497 10.616C7.823 10.6484 7.9085 10.6663 7.99816 10.6666L8.00016 10.6666L8.00216 10.6666C8.18325 10.6661 8.34735 10.5933 8.4672 10.4757L8.47204 10.4708L11.8049 7.13799C12.0653 6.87764 12.0653 6.45553 11.8049 6.19518C11.5446 5.93483 11.1224 5.93483 10.8621 6.19518L8.66683 8.39044V1.99992Z" fill="white"/>
<path d="M2.66683 9.99992C2.66683 9.63173 2.36835 9.33325 2.00016 9.33325C1.63197 9.33325 1.3335 9.63173 1.3335 9.99992V12.6666C1.3335 13.7681 2.23197 14.6666 3.3335 14.6666H12.6668C13.7684 14.6666 14.6668 13.7681 14.6668 12.6666V9.99992C14.6668 9.63173 14.3684 9.33325 14.0002 9.33325C13.632 9.33325 13.3335 9.63173 13.3335 9.99992V12.6666C13.3335 13.0317 13.032 13.3333 12.6668 13.3333H3.3335C2.96835 13.3333 2.66683 13.0317 2.66683 12.6666V9.99992Z" fill="white"/>
</svg>
