<svg width="15" height="15" viewBox="0 0 15 15" fill="none" xmlns="http://www.w3.org/2000/svg">
<path fill-rule="evenodd" clip-rule="evenodd" d="M14.1381 0.595262C13.3444 -0.198421 11.989 -0.198421 11.1953 0.595262L4.86194 6.9286C4.7765 7.01404 4.71589 7.12109 4.68659 7.23831L4.01992 9.90498C3.96312 10.1322 4.02969 10.3725 4.19528 10.5381C4.36086 10.7037 4.60119 10.7702 4.82837 10.7134L7.49504 10.0468C7.61226 10.0175 7.71931 9.95684 7.80475 9.8714L14.1381 3.53807C14.9318 2.74439 14.9318 1.38894 14.1381 0.595262ZM12.1381 1.53807C12.4111 1.26509 12.9223 1.26509 13.1953 1.53807C13.4683 1.81105 13.4683 2.32228 13.1953 2.59526L6.99251 8.79802L5.58293 9.15042L5.93532 7.74083L12.1381 1.53807Z" fill="white"/>
<path d="M2 1.40007C0.898477 1.40007 0 2.29854 0 3.40007V12.7334C0 13.8349 0.898477 14.7334 2 14.7334H11.3333C12.4349 14.7334 13.3333 13.8349 13.3333 12.7334V8.06673C13.3333 7.69854 13.0349 7.40007 12.6667 7.40007C12.2985 7.40007 12 7.69854 12 8.06673V12.7334C12 13.0985 11.6985 13.4001 11.3333 13.4001H2C1.63486 13.4001 1.33333 13.0985 1.33333 12.7334V3.40007C1.33333 3.03492 1.63486 2.7334 2 2.7334H6.66667C7.03486 2.7334 7.33333 2.43492 7.33333 2.06673C7.33333 1.69854 7.03486 1.40007 6.66667 1.40007H2Z" fill="white"/>
</svg>
