<svg width="12" height="12" viewBox="0 0 12 12" fill="none" xmlns="http://www.w3.org/2000/svg">
<path fill-rule="evenodd" clip-rule="evenodd" d="M6.00001 0.75C6.19032 0.75 6.36413 0.858036 6.44837 1.02869L7.87715 3.92323L11.0723 4.39026C11.2606 4.41778 11.4169 4.54978 11.4756 4.73078C11.5343 4.91179 11.4852 5.11041 11.3489 5.24318L9.03728 7.49468L9.58282 10.6755C9.61499 10.8631 9.53787 11.0527 9.38388 11.1645C9.22989 11.2764 9.02575 11.2911 8.85729 11.2025L6.00001 9.69992L3.14274 11.2025C2.97428 11.2911 2.77014 11.2764 2.61615 11.1645C2.46216 11.0527 2.38504 10.8631 2.41721 10.6755L2.96275 7.49468L0.651148 5.24318C0.514839 5.11041 0.465703 4.91179 0.524392 4.73078C0.58308 4.54978 0.73942 4.41778 0.9277 4.39026L4.12288 3.92323L5.55166 1.02869C5.6359 0.858036 5.80971 0.75 6.00001 0.75ZM6.00001 2.37963L4.90337 4.60131C4.8306 4.74874 4.69001 4.85097 4.52733 4.87474L2.07422 5.2333L3.84888 6.96182C3.96682 7.07669 4.02065 7.24226 3.99282 7.40452L3.5741 9.84584L5.76729 8.69246C5.91298 8.61585 6.08705 8.61585 6.23274 8.69246L8.42592 9.84584L8.00721 7.40452C7.97938 7.24226 8.03321 7.07669 8.15115 6.96182L9.92581 5.2333L7.4727 4.87474C7.31002 4.85097 7.16943 4.74874 7.09666 4.60131L6.00001 2.37963Z" fill="#18181B"/>
</svg>
