<svg width="25" height="15" viewBox="0 0 25 15" fill="none" xmlns="http://www.w3.org/2000/svg">
<rect width="25" height="15" rx="4" fill="#008568"/>
<path d="M5.77 11.15C3.91 11.15 2.46 9.81 2.46 7.52C2.46 5.41 4.05 3.85 6.08 3.85C7.93 3.85 8.95 4.87 9.32 5.97L8.06 6.45C7.76 5.62 7.2 4.97 6.08 4.97C4.84 4.97 3.82 5.88 3.82 7.51C3.82 9.13 4.79 10.05 6.04 10.05C7.29 10.05 7.92 9.26 7.99 8.58H5.67V7.46H9.29V11H8.09V9.91C7.81 10.38 7.2 11.15 5.77 11.15ZM15.9406 11H10.8006V4H15.9406V5.12H12.1006V6.84H14.9806V7.94H12.1006V9.88H15.9406V11ZM20.2538 11H18.9538V5.12H16.5238V4H22.7238V5.12H20.2538V11Z" fill="white"/>
</svg>
