<svg width="16" height="16" viewBox="0 0 16 16" fill="none" xmlns="http://www.w3.org/2000/svg">
<path fill-rule="evenodd" clip-rule="evenodd" d="M1.99967 1.3335C1.63148 1.3335 1.33301 1.63197 1.33301 2.00016V6.66683C1.33301 7.03502 1.63148 7.3335 1.99967 7.3335H6.66634C7.03453 7.3335 7.33301 7.03502 7.33301 6.66683V2.00016C7.33301 1.63197 7.03453 1.3335 6.66634 1.3335H1.99967ZM2.66634 6.00016V2.66683H5.99967V6.00016H2.66634Z" fill="#18181B"/>
<path fill-rule="evenodd" clip-rule="evenodd" d="M9.33301 1.3335C8.96482 1.3335 8.66634 1.63197 8.66634 2.00016V6.66683C8.66634 7.03502 8.96482 7.3335 9.33301 7.3335H13.9997C14.3679 7.3335 14.6663 7.03502 14.6663 6.66683V2.00016C14.6663 1.63197 14.3679 1.3335 13.9997 1.3335H9.33301ZM9.99967 6.00016V2.66683H13.333V6.00016H9.99967Z" fill="#18181B"/>
<path fill-rule="evenodd" clip-rule="evenodd" d="M8.66634 9.3335C8.66634 8.96531 8.96482 8.66683 9.33301 8.66683H13.9997C14.3679 8.66683 14.6663 8.96531 14.6663 9.3335V14.0002C14.6663 14.3684 14.3679 14.6668 13.9997 14.6668H9.33301C8.96482 14.6668 8.66634 14.3684 8.66634 14.0002V9.3335ZM9.99967 10.0002V13.3335H13.333V10.0002H9.99967Z" fill="#18181B"/>
<path fill-rule="evenodd" clip-rule="evenodd" d="M1.99967 8.66683C1.63148 8.66683 1.33301 8.96531 1.33301 9.3335V14.0002C1.33301 14.3684 1.63148 14.6668 1.99967 14.6668H6.66634C7.03453 14.6668 7.33301 14.3684 7.33301 14.0002V9.3335C7.33301 8.96531 7.03453 8.66683 6.66634 8.66683H1.99967ZM2.66634 13.3335V10.0002H5.99967V13.3335H2.66634Z" fill="#18181B"/>
</svg>
