<svg width="16" height="16" viewBox="0 0 16 16" fill="none" xmlns="http://www.w3.org/2000/svg">
<path d="M8 0.666992C12.0501 0.666992 15.333 3.94991 15.333 8C15.333 12.0501 12.0501 15.333 8 15.333C3.94991 15.333 0.666992 12.0501 0.666992 8C0.666992 3.94991 3.94991 0.666992 8 0.666992ZM8 2C4.68629 2 2 4.68629 2 8C2 11.3137 4.68629 14 8 14C11.3137 14 14 11.3137 14 8C14 4.68629 11.3137 2 8 2ZM8.00586 10.667C8.37394 10.667 8.67268 10.965 8.67285 11.333C8.67285 11.7012 8.37405 12 8.00586 12H8C7.63185 12 7.33301 11.7012 7.33301 11.333C7.33318 10.965 7.63196 10.667 8 10.667H8.00586ZM8 4C9.28855 4 10.3328 5.04449 10.333 6.33301C10.333 7.30028 9.74494 8.12955 8.90918 8.4834C8.81278 8.52425 8.73801 8.57883 8.69629 8.62598C8.66187 8.66503 8.66603 8.67863 8.66699 8.66992V9C8.66699 9.36819 8.36819 9.66699 8 9.66699C7.63181 9.66699 7.33301 9.36819 7.33301 9V8.66699C7.33301 7.8986 7.95468 7.43902 8.38965 7.25488C8.74959 7.10234 9 6.74593 9 6.33301C8.99982 5.78088 8.55217 5.33301 8 5.33301C7.44783 5.33301 7.00018 5.78088 7 6.33301C7 6.7012 6.7012 7 6.33301 7C5.96497 6.99982 5.66699 6.70109 5.66699 6.33301C5.66717 5.04449 6.71145 4 8 4Z" fill="#A9A9AF"/>
</svg>
