<svg width="14" height="14" viewBox="0 0 14 14" fill="none" xmlns="http://www.w3.org/2000/svg">
<path fill-rule="evenodd" clip-rule="evenodd" d="M7 0.166504C7.32593 0.166504 7.64273 0.273864 7.90167 0.471844L12.7806 4.20231L12.8633 4.26937C13.2663 4.61642 13.5 5.12334 13.5 5.65869V11.9998C13.5 13.0124 12.6792 13.8332 11.6667 13.8332H2.33333C1.32081 13.8332 0.5 13.0124 0.5 11.9998V5.65869C0.500013 5.08773 0.765887 4.54918 1.2194 4.20231L6.09833 0.471844L6.19793 0.401531C6.43647 0.248404 6.7148 0.166504 7 0.166504ZM5.66667 7.6665C5.29848 7.6665 5 7.96497 5 8.33317V12.4998H9V8.33317C9 7.96497 8.70153 7.6665 8.33333 7.6665H5.66667Z" fill="#717179"/>
</svg>
