<svg width="20" height="20" viewBox="0 0 20 20" fill="none" xmlns="http://www.w3.org/2000/svg">
<path d="M16.25 1.25C17.6307 1.25 18.75 2.3693 18.75 3.75V16.25C18.75 17.6307 17.6307 18.75 16.25 18.75H3.75C2.3693 18.75 1.25 17.6307 1.25 16.25V3.75C1.25 2.36929 2.36929 1.25 3.75 1.25H16.25ZM2.91699 16.25C2.91699 16.7103 3.28975 17.083 3.75 17.083H16.25C16.7103 17.083 17.083 16.7103 17.083 16.25V11.667H13.7266C13.5191 13.5418 11.9301 15 10 15C8.0699 15 6.48088 13.5418 6.27344 11.667H2.91699V16.25ZM3.75 2.91699C3.28976 2.91699 2.91699 3.28976 2.91699 3.75V10H7.08301C7.54314 10 7.91682 10.3729 7.91699 10.833V11.25C7.91699 12.4006 8.8494 13.333 10 13.333C11.1506 13.333 12.083 12.4006 12.083 11.25V10.833C12.0832 10.3729 12.4569 10 12.917 10H17.083V3.75C17.083 3.28975 16.7103 2.91699 16.25 2.91699H3.75Z" fill="white"/>
</svg>
