<svg width="20" height="20" viewBox="0 0 20 20" fill="none" xmlns="http://www.w3.org/2000/svg">
<path d="M16.6667 2.5C18.0474 2.5 19.1667 3.6193 19.1667 5V15C19.1667 16.3807 18.0474 17.5 16.6667 17.5H3.33368C1.95297 17.5 0.833679 16.3807 0.833679 15V5C0.833679 3.61929 1.95297 2.5 3.33368 2.5H16.6667ZM11.1179 10.373C10.4142 10.7247 9.58517 10.7249 8.88153 10.373L2.49969 7.18164V15C2.49969 15.4603 2.87343 15.833 3.33368 15.833H16.6667C17.1269 15.833 17.4997 15.4603 17.4997 15V7.18164L11.1179 10.373ZM3.33368 4.16699C2.87344 4.16699 2.49969 4.53976 2.49969 5V5.31738L9.62762 8.88184C9.86213 8.99899 10.1383 8.99907 10.3727 8.88184L17.4997 5.31836V5C17.4997 4.53975 17.1269 4.16699 16.6667 4.16699H3.33368Z" fill="white"/>
</svg>
