<svg width="16" height="16" viewBox="0 0 16 16" fill="none" xmlns="http://www.w3.org/2000/svg">
<path d="M12.3333 7.33317V2.6665C12.3333 2.29831 12.0349 1.99984 11.6667 1.99984H3C2.63185 1.99989 2.33334 2.29835 2.33333 2.6665V13.3332C2.33333 13.7014 2.63179 13.9998 3 13.9998H7C7.36818 13.9998 7.66667 14.2983 7.66667 14.6665C7.66667 15.0347 7.36818 15.3332 7 15.3332H3C1.89544 15.3332 0.999993 14.4378 1 13.3332V2.6665C1.00001 1.56198 1.89547 0.666554 3 0.666504H11.6667C12.7713 0.666511 13.6667 1.56194 13.6667 2.6665V7.33317C13.6667 7.70136 13.3682 7.99983 13 7.99984C12.6318 7.99984 12.3333 7.70136 12.3333 7.33317Z" fill="#A9A9AF"/>
<path d="M10 7.33333C10.3682 7.33333 10.6667 7.63181 10.6667 8C10.6667 8.36819 10.3682 8.66667 10 8.66667H4.66667C4.29848 8.66667 4 8.36819 4 8C4 7.63181 4.29848 7.33333 4.66667 7.33333H10ZM10 4C10.3682 4 10.6667 4.29848 10.6667 4.66667C10.6667 5.03486 10.3682 5.33333 10 5.33333H4.66667C4.29848 5.33333 4 5.03486 4 4.66667C4 4.29848 4.29848 4 4.66667 4H10Z" fill="#A9A9AF"/>
<path d="M12.5793 8.81658C12.8412 8.60301 13.2272 8.61807 13.4713 8.86215L14.8046 10.1955C15.065 10.4558 15.065 10.8778 14.8046 11.1382L10.8046 15.1382C10.6796 15.2632 10.5101 15.3335 10.3333 15.3335H8.99992C8.63173 15.3335 8.33325 15.035 8.33325 14.6668V13.3335L8.33651 13.2677C8.35163 13.1151 8.41914 12.9716 8.52856 12.8621L12.5286 8.86215L12.5793 8.81658ZM9.66659 13.6095V14.0002H10.0572L13.3905 10.6668L12.9999 10.2762L9.66659 13.6095Z" fill="#A9A9AF"/>
</svg>
