<svg width="16" height="16" viewBox="0 0 16 16" fill="none" xmlns="http://www.w3.org/2000/svg">
<path d="M2.00684 11.333C2.37488 11.3332 2.67285 11.6319 2.67285 12C2.67285 12.3681 2.37488 12.6668 2.00684 12.667H2C1.63181 12.667 1.33301 12.3682 1.33301 12C1.33301 11.6318 1.63181 11.333 2 11.333H2.00684ZM14 11.333C14.3682 11.333 14.667 11.6318 14.667 12C14.667 12.3682 14.3682 12.667 14 12.667H5.33301C4.96497 12.6668 4.66699 12.3681 4.66699 12C4.66699 11.6319 4.96497 11.3332 5.33301 11.333H14ZM2.00684 7.33301C2.37488 7.33318 2.67285 7.63192 2.67285 8C2.67285 8.36808 2.37488 8.66682 2.00684 8.66699H2C1.63181 8.66699 1.33301 8.36819 1.33301 8C1.33301 7.63181 1.63181 7.33301 2 7.33301H2.00684ZM14 7.33301C14.3682 7.33301 14.667 7.63181 14.667 8C14.667 8.36819 14.3682 8.66699 14 8.66699H5.33301C4.96497 8.66682 4.66699 8.36808 4.66699 8C4.66699 7.63192 4.96497 7.33318 5.33301 7.33301H14ZM2.00684 3.33301C2.37488 3.33318 2.67285 3.63192 2.67285 4C2.67285 4.36808 2.37488 4.66682 2.00684 4.66699H2C1.63181 4.66699 1.33301 4.36819 1.33301 4C1.33301 3.63181 1.63181 3.33301 2 3.33301H2.00684ZM14 3.33301C14.3682 3.33301 14.667 3.63181 14.667 4C14.667 4.36819 14.3682 4.66699 14 4.66699H5.33301C4.96497 4.66682 4.66699 4.36808 4.66699 4C4.66699 3.63192 4.96497 3.33318 5.33301 3.33301H14Z" fill="#18181B"/>
</svg>
