<svg width="20" height="20" viewBox="0 0 20 20" fill="none" xmlns="http://www.w3.org/2000/svg">
<path d="M18.1235 9.22846C18.0884 7.2792 17.3615 5.33793 15.8737 3.8639C14.3844 2.38852 12.4702 1.69008 10.5582 1.6679C10.2121 1.66388 10.039 1.66188 9.91525 1.7842C9.7915 1.90653 9.7915 2.09186 9.7915 2.46252V9.16738C9.7915 9.56021 9.7915 9.75663 9.9135 9.87863C10.0356 10.0007 10.232 10.0007 10.6248 10.0007H17.3285C17.7014 10.0007 17.8879 10.0007 18.0104 9.87596C18.1329 9.75129 18.1298 9.57704 18.1235 9.22846Z" fill="url(#paint0_linear_5132_110853)"/>
<path d="M8.56792 9.79139C8.60184 10.0435 8.69767 10.4308 9.02967 10.7628C9.36167 11.0948 9.749 11.1906 10.0011 11.2246C10.2011 11.2515 10.4271 11.2512 10.5874 11.251H17.3285H17.3647C17.4865 11.2511 17.6564 11.2514 17.8232 11.2363C17.2282 15.1374 13.8588 18.1261 9.7915 18.1261C5.30419 18.1261 1.6665 14.4884 1.6665 10.0011C1.6665 5.93372 4.65514 2.56441 8.55617 1.96936C8.541 2.13586 8.54125 2.3055 8.5415 2.4268V2.4628V9.20506C8.54125 9.36531 8.541 9.59139 8.56792 9.79139Z" fill="url(#paint1_linear_5132_110853)"/>
<defs>
<linearGradient id="paint0_linear_5132_110853" x1="3.51966" y1="5.88156" x2="23.3454" y2="5.88156" gradientUnits="userSpaceOnUse">
<stop stop-color="#4B69FF"/>
<stop offset="0.258976" stop-color="#843BD7"/>
<stop offset="0.62" stop-color="#EE3E9C"/>
<stop offset="0.815" stop-color="#FF503C"/>
<stop offset="1" stop-color="#FF9C2E"/>
</linearGradient>
<linearGradient id="paint1_linear_5132_110853" x1="-10.4918" y1="10.1406" x2="27.9415" y2="10.1406" gradientUnits="userSpaceOnUse">
<stop stop-color="#4B69FF"/>
<stop offset="0.258976" stop-color="#843BD7"/>
<stop offset="0.62" stop-color="#EE3E9C"/>
<stop offset="0.815" stop-color="#FF503C"/>
<stop offset="1" stop-color="#FF9C2E"/>
</linearGradient>
</defs>
</svg>
