<svg width="12" height="12" viewBox="0 0 12 12" fill="none" xmlns="http://www.w3.org/2000/svg">
<path d="M4 10V9C4 8.72386 4.22386 8.5 4.5 8.5C4.77614 8.5 5 8.72386 5 9V10C5 10.1381 5.11193 10.25 5.25 10.25H9.75C9.88806 10.25 10 10.1381 10 10V2C10 1.86193 9.88806 1.75 9.75 1.75H5.25C5.11193 1.75 5 1.86193 5 2V3C5 3.27614 4.77614 3.5 4.5 3.5C4.22386 3.5 4 3.27614 4 3V2C4 1.30964 4.55964 0.75 5.25 0.75H9.75C10.4403 0.75 11 1.30964 11 2V10C11 10.6903 10.4403 11.25 9.75 11.25H5.25C4.55964 11.25 4 10.6903 4 10Z" fill="#18181B"/>
<path d="M5.89648 3.89648C6.09175 3.70121 6.40825 3.70121 6.60352 3.89648L8.35352 5.64648C8.54878 5.84174 8.54878 6.15825 8.35352 6.35351L6.60352 8.10351C6.40825 8.29877 6.09175 8.29877 5.89648 8.10351C5.70122 7.90825 5.70122 7.59174 5.89648 7.39648L6.79297 6.49999H1.5C1.22386 6.49999 1 6.27614 1 5.99999C1 5.72385 1.22386 5.49999 1.5 5.49999H6.79297L5.89648 4.60351C5.70122 4.40825 5.70122 4.09174 5.89648 3.89648Z" fill="#18181B"/>
</svg>
