<svg width="12" height="12" viewBox="0 0 12 12" fill="none" xmlns="http://www.w3.org/2000/svg">
<path d="M6.5 0.75C7.19034 0.75 7.75 1.30964 7.75 2V3C7.75 3.27614 7.52614 3.5 7.25 3.5C6.97386 3.5 6.75 3.27614 6.75 3V2C6.75 1.86193 6.63806 1.75 6.5 1.75H2C1.86193 1.75 1.75 1.86193 1.75 2V10C1.75 10.1381 1.86193 10.25 2 10.25H6.5C6.63806 10.25 6.75 10.1381 6.75 10V9C6.75 8.72386 6.97386 8.5 7.25 8.5C7.52614 8.5 7.75 8.72386 7.75 9V10C7.75 10.6903 7.19034 11.25 6.5 11.25H2C1.30964 11.25 0.75 10.6903 0.75 10V2C0.75 1.30964 1.30964 0.75 2 0.75H6.5ZM8.64648 3.89648C8.84175 3.70122 9.15825 3.70122 9.35352 3.89648L11.1035 5.64648C11.2988 5.84175 11.2988 6.15825 11.1035 6.35352L9.35352 8.10352C9.15825 8.29878 8.84175 8.29878 8.64648 8.10352C8.45122 7.90825 8.45122 7.59175 8.64648 7.39648L9.54297 6.5H4.25C3.97386 6.5 3.75 6.27614 3.75 6C3.75 5.72386 3.97386 5.5 4.25 5.5H9.54297L8.64648 4.60352C8.45122 4.40825 8.45122 4.09175 8.64648 3.89648Z" fill="white"/>
</svg>
