<svg width="16" height="16" viewBox="0 0 16 16" fill="none" xmlns="http://www.w3.org/2000/svg">
<path d="M8.00001 14.6668C7.80001 14.6668 7.60001 14.6668 7.40001 14.6668C3.73334 14.2668 1.00001 11.0002 1.33334 7.3335C1.60001 4.1335 4.13334 1.60016 7.33334 1.3335C7.60001 1.3335 7.86668 1.46683 8.00001 1.66683C8.13334 1.86683 8.13334 2.20016 7.93334 2.40016C6.66668 4.20016 7.06668 6.66683 8.80001 8.00016C10.2 9.06683 12.1333 9.06683 13.5333 8.00016C13.7333 7.86683 14 7.80016 14.2667 7.9335C14.4667 8.06683 14.6 8.3335 14.6 8.60016C14.4667 10.4002 13.6 12.0002 12.2 13.1335C11.0667 14.1335 9.53334 14.6668 8.00001 14.6668ZM6.20001 2.9335C4.26668 3.60016 2.86668 5.3335 2.73334 7.46683C2.46668 10.4002 4.60001 13.0002 7.53334 13.2668C8.93334 13.4002 10.3333 13.0002 11.4 12.0668C12.1333 11.4668 12.6667 10.6668 13 9.80016C11.3333 10.4002 9.46668 10.1335 8.00001 9.06683C6.06668 7.60016 5.40001 5.1335 6.20001 2.9335Z" fill="white"/>
</svg>
