<svg width="14" height="14" viewBox="0 0 14 14" fill="none" xmlns="http://www.w3.org/2000/svg">
<path fill-rule="evenodd" clip-rule="evenodd" d="M2.5 0C1.11929 0 0 1.11929 0 2.5V11.1667C0 12.5474 1.11929 13.6667 2.5 13.6667H11.1667C12.5474 13.6667 13.6667 12.5474 13.6667 11.1667V2.5C13.6667 1.11929 12.5474 0 11.1667 0H2.5ZM3.83333 3.66667C3.37309 3.66667 3 4.03976 3 4.5V5.68193L2.41731 6.556C2.30534 6.72393 2.30534 6.94273 2.41731 7.11067L3 7.98473V9.16667C3 9.62693 3.37309 10 3.83333 10H4.5C4.77614 10 5 9.77613 5 9.5C5 9.22387 4.77614 9 4.5 9H4V7.93427C4 7.76973 3.9513 7.60887 3.86004 7.472L3.43426 6.83333L3.86004 6.19467C3.9513 6.0578 4 5.89693 4 5.7324V4.66667H4.5C4.77614 4.66667 5 4.44281 5 4.16667C5 3.89053 4.77614 3.66667 4.5 3.66667H3.83333ZM8.66667 4.16667C8.66667 3.89053 8.89053 3.66667 9.16667 3.66667H9.83333C10.2936 3.66667 10.6667 4.03976 10.6667 4.5V5.68193L11.2493 6.556C11.3613 6.72393 11.3613 6.94273 11.2493 7.11067L10.6667 7.98473V9.16667C10.6667 9.62693 10.2936 10 9.83333 10H9.16667C8.89053 10 8.66667 9.77613 8.66667 9.5C8.66667 9.22387 8.89053 9 9.16667 9H9.66667V7.93427C9.66667 7.76973 9.71533 7.60887 9.8066 7.472L10.2324 6.83333L9.8066 6.19467C9.71533 6.0578 9.66667 5.89693 9.66667 5.7324V4.66667H9.16667C8.89053 4.66667 8.66667 4.44281 8.66667 4.16667ZM5.5 6.16667C5.13181 6.16667 4.83333 6.46513 4.83333 6.83333C4.83333 7.20153 5.13181 7.5 5.5 7.5H5.506C5.87413 7.5 6.17267 7.20153 6.17267 6.83333C6.17267 6.46513 5.87413 6.16667 5.506 6.16667H5.5ZM8.16067 6.16667C7.79253 6.16667 7.494 6.46513 7.494 6.83333C7.494 7.20153 7.79253 7.5 8.16067 7.5H8.16667C8.53487 7.5 8.83333 7.20153 8.83333 6.83333C8.83333 6.46513 8.53487 6.16667 8.16667 6.16667H8.16067Z" fill="white"/>
</svg>
