<svg width="20" height="20" viewBox="0 0 20 20" fill="none" xmlns="http://www.w3.org/2000/svg">
<path fill-rule="evenodd" clip-rule="evenodd" d="M16.6665 2.29163C17.9322 2.29163 18.9582 3.31764 18.9582 4.58329V9.88929L18.1265 8.81421C17.6949 8.32662 16.6094 8.17427 15.8991 8.60838C15.3598 8.93796 15.0684 9.50563 15.0128 10.0016H13.9582C12.4624 10.0016 11.2498 11.2141 11.2498 12.71C11.2498 13.1901 11.4323 13.6266 11.7292 13.9583C11.6478 14.049 11.4476 14.3709 11.4476 14.3709C11.315 14.636 11.2507 14.9229 11.2507 15.2083H3.33317C2.06752 15.2083 1.0415 14.1823 1.0415 12.9166V4.58329C1.0415 3.31764 2.06752 2.29163 3.33317 2.29163H16.6665ZM2.2915 12.9166C2.2915 13.492 2.75787 13.9583 3.33317 13.9583H4.94125C4.6871 12.6185 3.63125 11.5627 2.2915 11.3085V12.9166ZM9.99984 6.24996C8.61909 6.24996 7.49984 7.36925 7.49984 8.74996C7.49984 10.1307 8.61909 11.25 9.99984 11.25C11.3806 11.25 12.4998 10.1307 12.4998 8.74996C12.4998 7.36925 11.3806 6.24996 9.99984 6.24996ZM3.33317 3.54163C2.75787 3.54163 2.2915 4.00799 2.2915 4.58329V6.19137C3.63125 5.93722 4.6871 4.88137 4.94125 3.54163H3.33317ZM15.0584 3.54163C15.3126 4.88137 16.3684 5.93722 17.7082 6.19137V4.58329C17.7082 4.00799 17.2418 3.54163 16.6665 3.54163H15.0584Z" fill="url(#paint0_linear_5132_110842)"/>
<path d="M17.2915 14.3746C17.2915 13.9144 17.6646 13.5413 18.1248 13.5413C18.5851 13.5413 18.9582 13.9144 18.9582 14.3746C18.9582 15.2951 18.212 16.0413 17.2915 16.0413H14.7907L15.0413 16.375L15.0893 16.4458C15.3071 16.8075 15.2196 17.2823 14.8745 17.5411C14.5293 17.7999 14.0491 17.7507 13.7628 17.4402L13.7083 17.3743L12.4583 15.7076C12.269 15.4551 12.2383 15.1175 12.3794 14.8352C12.5206 14.553 12.8092 14.3746 13.1248 14.3746H17.2915ZM12.2915 12.708C12.2915 11.7875 13.0377 11.0413 13.9582 11.0413H16.459L16.2083 10.7076L16.1603 10.6368C15.9426 10.2751 16.0301 9.8003 16.3752 9.54146C16.7203 9.28271 17.2006 9.33188 17.4868 9.64238L17.5413 9.7083L18.7913 11.375L18.8548 11.4735C18.9855 11.711 18.9938 12.0004 18.8703 12.2474C18.7291 12.5297 18.4405 12.708 18.1248 12.708H13.9582C13.9582 13.1682 13.5851 13.5413 13.1248 13.5413C12.6646 13.5413 12.2915 13.1682 12.2915 12.708Z" fill="url(#paint1_linear_5132_110842)"/>
<defs>
<linearGradient id="paint0_linear_5132_110842" x1="-12.4412" y1="8.82419" x2="30.1787" y2="8.82419" gradientUnits="userSpaceOnUse">
<stop stop-color="#4B69FF"/>
<stop offset="0.258976" stop-color="#843BD7"/>
<stop offset="0.62" stop-color="#EE3E9C"/>
<stop offset="0.815" stop-color="#FF503C"/>
<stop offset="1" stop-color="#FF9C2E"/>
</linearGradient>
<linearGradient id="paint1_linear_5132_110842" x1="7.27467" y1="13.5892" x2="23.1333" y2="13.5892" gradientUnits="userSpaceOnUse">
<stop stop-color="#4B69FF"/>
<stop offset="0.258976" stop-color="#843BD7"/>
<stop offset="0.62" stop-color="#EE3E9C"/>
<stop offset="0.815" stop-color="#FF503C"/>
<stop offset="1" stop-color="#FF9C2E"/>
</linearGradient>
</defs>
</svg>
