<svg width="20" height="20" viewBox="0 0 20 20" fill="none" xmlns="http://www.w3.org/2000/svg">
<path d="M13.75 0.833984C15.1307 0.833985 16.25 1.95328 16.25 3.33398V16.667C16.25 18.0477 15.1307 19.167 13.75 19.167H6.25C4.8693 19.167 3.75 18.0477 3.75 16.667V3.33398C3.75 1.95327 4.86929 0.833984 6.25 0.833984H13.75ZM6.25 2.5C5.78976 2.5 5.41699 2.87375 5.41699 3.33398V16.667C5.41699 17.1272 5.78975 17.5 6.25 17.5H13.75C14.2103 17.5 14.583 17.1273 14.583 16.667V3.33398C14.583 2.87374 14.2103 2.5 13.75 2.5H6.25ZM10.0078 15C10.468 15 10.8418 15.3737 10.8418 15.834C10.8416 16.2941 10.4679 16.667 10.0078 16.667H10C9.53987 16.667 9.16717 16.2941 9.16699 15.834C9.16699 15.3737 9.53976 15 10 15H10.0078Z" fill="white"/>
</svg>
