<svg width="20" height="20" viewBox="0 0 20 20" fill="none" xmlns="http://www.w3.org/2000/svg">
<path d="M10.0005 0.833374C15.0628 0.83355 19.1663 4.9372 19.1665 9.99939C19.1665 15.0618 15.0629 19.1662 10.0005 19.1664C4.93788 19.1664 0.833496 15.0619 0.833496 9.99939C0.833747 4.9371 4.93803 0.833374 10.0005 0.833374ZM10.0005 2.50037C5.85851 2.50037 2.50074 5.85755 2.50049 9.99939C2.50049 14.1414 5.85835 17.4994 10.0005 17.4994C10.8756 17.4994 11.7148 17.3472 12.4956 17.0717L7.29541 11.8715C6.96997 11.546 6.96997 11.0182 7.29541 10.6927L14.2017 3.78552C13.0032 2.9737 11.557 2.50043 10.0005 2.50037ZM9.06299 11.2816L14.0757 16.2943C16.1361 14.9576 17.5005 12.6383 17.5005 9.99939C17.5004 8.01594 16.7287 6.21357 15.4712 4.87244L9.06299 11.2816ZM14.1313 8.09119C14.4778 7.78824 15.0041 7.82293 15.3071 8.16931C15.6677 8.58152 15.9182 9.09996 16.0278 9.66638C16.0688 9.87809 16.0903 10.0971 16.0903 10.3207C16.0903 10.6013 16.0565 10.8753 15.9927 11.1361C15.8333 11.7872 15.4837 12.3686 14.9917 12.7816C14.6392 13.0775 14.1128 13.0316 13.8169 12.6791C13.5212 12.3267 13.5673 11.8012 13.9194 11.5052C14.1211 11.336 14.2923 11.0716 14.3735 10.7396C14.4056 10.6084 14.4233 10.4679 14.4233 10.3207C14.4233 10.2033 14.4119 10.0903 14.3911 9.98279C14.3351 9.69321 14.2105 9.44791 14.0522 9.26697C13.7492 8.92056 13.7849 8.39419 14.1313 8.09119Z" fill="#18181B"/>
</svg>
