<svg width="32" height="16" viewBox="0 0 32 16" fill="none" xmlns="http://www.w3.org/2000/svg">
<rect y="0.5" width="32" height="15" rx="4" fill="#0D0F33"/>
<path d="M4.21 11.5H2.91V4.5H5.92C7.41 4.5 8.37 5.37 8.37 6.7C8.37 8.04 7.41 8.93 5.92 8.93H4.21V11.5ZM4.21 5.62V7.83H5.68C6.51 7.83 7.01 7.39 7.01 6.7C7.01 6.04 6.52 5.62 5.68 5.62H4.21ZM12.7406 11.65C10.5206 11.65 9.09063 10.15 9.09063 8.01C9.09063 5.89 10.5506 4.35 12.7406 4.35C14.9406 4.35 16.3806 5.89 16.3806 8.01C16.3806 10.15 14.9506 11.65 12.7406 11.65ZM12.7406 10.54C14.1706 10.54 15.0106 9.46 15.0106 8.01C15.0106 6.54 14.1706 5.46 12.7406 5.46C11.3006 5.46 10.4606 6.54 10.4606 8.01C10.4606 9.46 11.3006 10.54 12.7406 10.54ZM20.194 11.65C18.404 11.65 17.444 10.71 17.144 9.58L18.384 9.12C18.564 9.86 19.114 10.57 20.214 10.57C21.194 10.57 21.634 10.15 21.634 9.58C21.634 9.09 21.284 8.76 20.434 8.61L19.544 8.46C18.304 8.25 17.494 7.67 17.494 6.42C17.494 5.29 18.444 4.35 20.124 4.35C21.804 4.35 22.644 5.27 22.904 6.13L21.694 6.59C21.504 6.02 21.064 5.43 20.084 5.43C19.194 5.43 18.824 5.86 18.824 6.36C18.824 6.84 19.164 7.11 19.814 7.23L20.724 7.39C22.054 7.61 22.994 8.28 22.994 9.48C22.994 10.69 22.094 11.65 20.194 11.65ZM27.1093 11.5H25.8093V5.62H23.3793V4.5H29.5793V5.62H27.1093V11.5Z" fill="#A0A5FF"/>
</svg>
