<svg width="16" height="12" viewBox="0 0 16 12" fill="none" xmlns="http://www.w3.org/2000/svg">
<path d="M14.4707 6.90948C15.3984 7.32755 15.3984 8.67208 14.4707 9.09015L8.7373 11.6741C8.26741 11.8859 7.73262 11.8858 7.2627 11.6741L1.5293 9.09015C0.601685 8.67208 0.60169 7.32755 1.5293 6.90948L2.33105 6.54816L6.85156 8.58624C7.58282 8.9157 8.41721 8.91579 9.14844 8.58624L13.6689 6.54816L14.4707 6.90948ZM7.2627 0.3255C7.73259 0.113825 8.26744 0.113732 8.7373 0.3255L14.4707 2.90948C15.3984 3.3276 15.3984 4.67208 14.4707 5.09015L8.7373 7.67413C8.26738 7.8859 7.73264 7.88583 7.2627 7.67413L1.5293 5.09015C0.601685 4.67208 0.60169 3.3276 1.5293 2.90948L7.2627 0.3255Z" fill="#717179"/>
</svg>
