<svg width="16" height="16" viewBox="0 0 16 16" fill="none" xmlns="http://www.w3.org/2000/svg">
<path d="M4.86168 10.1953C5.12202 9.93495 5.54468 9.93495 5.80504 10.1953C6.06526 10.4555 6.06511 10.8773 5.80504 11.1377L1.80504 15.1386C1.54469 15.3989 1.12202 15.399 0.861681 15.1386C0.601457 14.8783 0.601433 14.4557 0.861681 14.1953L4.86168 10.1953ZM6.86168 12.1953C7.12201 11.9349 7.54471 11.935 7.80504 12.1953C8.06525 12.4556 8.06514 12.8774 7.80504 13.1377L5.80504 15.1386C5.5447 15.3989 5.12202 15.3989 4.86168 15.1386C4.60148 14.8783 4.60144 14.4556 4.86168 14.1953L6.86168 12.1953ZM14.6703 0.833958C14.9448 0.836171 15.1664 1.05938 15.1664 1.33396C15.1663 3.71033 14.6081 5.89865 13.3578 7.15525L11.6097 9.04587C11.5681 9.09107 11.5554 9.15574 11.5755 9.21384L11.8646 10.0468C12.0952 10.7107 11.926 11.4484 11.4291 11.9453L10.6869 12.6875C10.5931 12.7812 10.4659 12.8339 10.3334 12.834C10.2009 12.834 10.0736 12.7811 9.97985 12.6875L3.31285 6.02048C3.11794 5.82528 3.1179 5.50864 3.31285 5.31345L4.05602 4.57126C4.5529 4.07446 5.28974 3.90519 5.95348 4.13572L6.78649 4.42478C6.8445 4.44488 6.9093 4.43135 6.95445 4.38962L8.84508 2.64255C9.48815 2.00333 10.4501 1.55345 11.4662 1.26365C12.4956 0.970061 13.633 0.825638 14.6703 0.833958ZM2.86168 8.19529C3.12201 7.93489 3.54467 7.93495 3.80504 8.19529C4.06524 8.45556 4.06513 8.87735 3.80504 9.13767L1.80504 11.1386C1.5447 11.3989 1.12202 11.3989 0.861681 11.1386C0.601487 10.8783 0.601445 10.4556 0.861681 10.1953L2.86168 8.19529ZM12.1332 3.85837C11.8728 3.59802 11.4501 3.59802 11.1898 3.85837C10.9299 4.11864 10.9299 4.5405 11.1898 4.80075L11.1947 4.80466C11.4551 5.06501 11.8767 5.06501 12.1371 4.80466C12.3973 4.5443 12.3974 4.12258 12.1371 3.86228L12.1332 3.85837Z" fill="#A9A9AF"/>
</svg>
