<svg width="21" height="20" viewBox="0 0 21 20" fill="none" xmlns="http://www.w3.org/2000/svg">
<path fill-rule="evenodd" clip-rule="evenodd" d="M10.2937 0.921351C10.5283 0.804048 10.8045 0.804048 11.0391 0.921351L19.3724 5.08802C19.6547 5.22918 19.833 5.51773 19.833 5.83337C19.833 6.14902 19.6547 6.43757 19.3724 6.57873L11.0391 10.7454C10.8045 10.8627 10.5283 10.8627 10.2937 10.7454L1.96037 6.57873C1.67805 6.43757 1.49972 6.14902 1.49972 5.83337C1.49972 5.51773 1.67805 5.22918 1.96037 5.08802L10.2937 0.921351ZM4.19644 5.83337L10.6664 9.06835L17.1363 5.83337L10.6664 2.5984L4.19644 5.83337Z" fill="#18181B"/>
<path fill-rule="evenodd" clip-rule="evenodd" d="M1.58767 13.794C1.7935 13.3824 2.29406 13.2155 2.70571 13.4213L10.6664 17.4017L18.627 13.4213C19.0387 13.2155 19.5392 13.3824 19.745 13.794C19.9509 14.2057 19.784 14.7062 19.3724 14.912L11.039 19.0787C10.8044 19.196 10.5283 19.196 10.2937 19.0787L1.96035 14.912C1.5487 14.7062 1.38185 14.2057 1.58767 13.794Z" fill="#18181B"/>
<path fill-rule="evenodd" clip-rule="evenodd" d="M1.58767 9.62734C1.7935 9.21569 2.29406 9.04884 2.70571 9.25466L10.6664 13.235L18.627 9.25466C19.0387 9.04884 19.5392 9.21569 19.745 9.62734C19.9509 10.039 19.784 10.5396 19.3724 10.7454L11.039 14.912C10.8044 15.0293 10.5283 15.0293 10.2937 14.912L1.96035 10.7454C1.5487 10.5396 1.38185 10.039 1.58767 9.62734Z" fill="#18181B"/>
</svg>
