<svg viewBox="0 0 25 25" fill="none" xmlns="http://www.w3.org/2000/svg">
<path fill-rule="evenodd" clip-rule="evenodd" d="M16.6549 18.9366C15.1152 20.1683 13.1622 20.9048 11.0371 20.9048C6.06655 20.9048 2.03711 16.8753 2.03711 11.9048C2.03711 6.93422 6.06655 2.90479 11.0371 2.90479C16.0077 2.90479 20.0371 6.93422 20.0371 11.9048C20.0371 14.0298 19.3007 15.9827 18.0691 17.5224L21.7442 21.1976C22.1348 21.5881 22.1348 22.2213 21.7442 22.6118C21.3537 23.0023 20.7206 23.0023 20.33 22.6118L16.6549 18.9366ZM4.03711 11.9048C4.03711 8.03879 7.17112 4.90479 11.0371 4.90479C14.9031 4.90479 18.0371 8.03879 18.0371 11.9048C18.0371 13.7906 17.2914 15.5022 16.0788 16.7609C16.0445 16.7872 16.0115 16.8161 15.98 16.8476C15.9486 16.879 15.9197 16.912 15.8933 16.9464C14.6346 18.159 12.923 18.9048 11.0371 18.9048C7.17112 18.9048 4.03711 15.7708 4.03711 11.9048Z" fill="#1E2132"/>
</svg>
