<svg width="16" height="16" viewBox="0 0 16 16" fill="none" xmlns="http://www.w3.org/2000/svg">
<path d="M13.9333 5.73329C13.8667 5.66663 13.8667 5.59996 13.8 5.53329L9.13333 0.866626C9.06667 0.799959 9 0.733293 8.93333 0.733293C8.86667 0.666626 8.73333 0.666626 8.66667 0.666626H4C2.86667 0.666626 2 1.53329 2 2.66663V13.3333C2 14.4666 2.86667 15.3333 4 15.3333H12C13.1333 15.3333 14 14.4666 14 13.3333V5.99996C14 5.93329 14 5.79996 13.9333 5.73329ZM9.33333 2.93329L11.7333 5.33329H9.33333V2.93329ZM12 14H4C3.6 14 3.33333 13.7333 3.33333 13.3333V2.66663C3.33333 2.26663 3.6 1.99996 4 1.99996H8V5.99996C8 6.39996 8.26667 6.66663 8.66667 6.66663H12.6667V13.3333C12.6667 13.7333 12.4 14 12 14Z" fill="white"/>
</svg>
