<svg width="14" height="16" viewBox="0 0 14 16" fill="none" xmlns="http://www.w3.org/2000/svg">
<path fill-rule="evenodd" clip-rule="evenodd" d="M6.14827 0.833344C5.64611 0.833344 5.20028 1.15468 5.04148 1.63108L4.58315 3.00608L3.87423 3.45445L2.37983 3.08469C1.88066 2.96118 1.35948 3.17906 1.09673 3.6211L0.187273 5.15116C-0.0995404 5.63368 -0.00206701 6.25205 0.41926 6.62296L1.44307 7.52421V8.47581L0.419573 9.37708C-0.00165371 9.74801 -0.0990604 10.3663 0.187713 10.8488L1.09722 12.3789C1.35996 12.8209 1.88114 13.0388 2.38032 12.9153L3.88971 12.5419L4.52354 12.8973L4.93679 14.3245C5.08123 14.8233 5.53806 15.1667 6.0574 15.1667H7.94527C8.46467 15.1667 8.92147 14.8233 9.06593 14.3245L9.4792 12.8972L10.1125 12.5419L11.6219 12.9153C12.1211 13.0388 12.6423 12.8209 12.905 12.3789L13.8317 10.8199C14.1047 10.3604 14.0307 9.77414 13.6519 9.39701L12.5951 8.34481L12.5954 7.65541L13.6524 6.60299C14.0312 6.22586 14.1053 5.63958 13.8321 5.18013L12.9055 3.6211C12.6427 3.17906 12.1215 2.96118 11.6224 3.08469L10.128 3.45445L9.41907 3.00608L8.96073 1.63108C8.80193 1.15468 8.35607 0.833344 7.85393 0.833344H6.14827ZM7 10.3333C8.28867 10.3333 9.33333 9.28868 9.33333 8.00001C9.33333 6.71134 8.28867 5.66668 7 5.66668C5.71133 5.66668 4.66667 6.71134 4.66667 8.00001C4.66667 9.28868 5.71133 10.3333 7 10.3333Z" fill="#717179"/>
</svg>
