<svg width="12" height="12" viewBox="0 0 12 12" fill="none" xmlns="http://www.w3.org/2000/svg">
<path d="M2.09668 2.09668C2.29195 1.90148 2.60847 1.90144 2.80371 2.09668C2.99894 2.29192 2.9989 2.60845 2.80371 2.80371C1.04903 4.55839 1.04916 7.44153 2.80371 9.19629C2.99889 9.39146 2.99871 9.70804 2.80371 9.90332C2.60845 10.0986 2.29194 10.0986 2.09668 9.90332C-0.0484004 7.75804 -0.0485219 4.24188 2.09668 2.09668ZM9.19629 2.09668C9.39149 1.90148 9.70804 1.9016 9.90332 2.09668C12.0486 4.24194 12.0486 7.70825 9.90332 9.85352C9.70806 10.0487 9.39154 10.0488 9.19629 9.85352C9.00132 9.65824 9.00115 9.34166 9.19629 9.14648C10.951 7.39175 10.951 4.55845 9.19629 2.80371C9.00125 2.60848 9.00122 2.29189 9.19629 2.09668ZM7.74609 3.54688C7.94136 3.35161 8.25884 3.35161 8.4541 3.54688C9.8031 4.89621 9.79213 7.10702 8.46094 8.49609C8.26987 8.69542 7.95326 8.70179 7.75391 8.51074C7.55496 8.31969 7.54847 8.00394 7.73926 7.80469C8.70796 6.79386 8.69678 5.2046 7.74609 4.25391C7.55113 4.05874 7.55123 3.7421 7.74609 3.54688ZM3.53906 3.50391C3.73014 3.30469 4.04678 3.29825 4.24609 3.48926C4.44546 3.68032 4.4518 3.99692 4.26074 4.19629C3.29227 5.20713 3.30329 6.79646 4.25391 7.74707C4.44887 7.94236 4.44907 8.25894 4.25391 8.4541C4.05874 8.64922 3.74215 8.64905 3.54688 8.4541C2.19756 7.10479 2.20777 4.89308 3.53906 3.50391ZM6 4.5C6.82835 4.5 7.49987 5.17168 7.5 6C7.5 6.82843 6.82843 7.5 6 7.5C5.17163 7.49993 4.5 6.82839 4.5 6C4.50013 5.17172 5.17171 4.50007 6 4.5ZM6 5.5C5.72399 5.50007 5.50013 5.72401 5.5 6C5.5 6.2761 5.72392 6.49993 6 6.5C6.27614 6.5 6.5 6.27614 6.5 6C6.49987 5.72397 6.27606 5.5 6 5.5Z" fill="white"/>
</svg>
