<svg width="16" height="16" viewBox="0 0 16 16" fill="none" xmlns="http://www.w3.org/2000/svg">
<path fill-rule="evenodd" clip-rule="evenodd" d="M1.33301 4.00016C1.33301 3.63197 1.63148 3.3335 1.99967 3.3335H13.9997C14.3679 3.3335 14.6663 3.63197 14.6663 4.00016C14.6663 4.36835 14.3679 4.66683 13.9997 4.66683H1.99967C1.63148 4.66683 1.33301 4.36835 1.33301 4.00016Z" fill="#18181B"/>
<path fill-rule="evenodd" clip-rule="evenodd" d="M3.99967 8.00016C3.99967 7.63197 4.29815 7.3335 4.66634 7.3335H11.333C11.7012 7.3335 11.9997 7.63197 11.9997 8.00016C11.9997 8.36835 11.7012 8.66683 11.333 8.66683H4.66634C4.29815 8.66683 3.99967 8.36835 3.99967 8.00016Z" fill="#18181B"/>
<path fill-rule="evenodd" clip-rule="evenodd" d="M5.99967 12.0002C5.99967 11.632 6.29815 11.3335 6.66634 11.3335H9.33301C9.7012 11.3335 9.99967 11.632 9.99967 12.0002C9.99967 12.3684 9.7012 12.6668 9.33301 12.6668H6.66634C6.29815 12.6668 5.99967 12.3684 5.99967 12.0002Z" fill="#18181B"/>
</svg>
