<svg width="30" height="35" viewBox="0 0 30 35" fill="none" xmlns="http://www.w3.org/2000/svg">
<g filter="url(#filter0_dii_5197_6130)">
<path d="M14.9745 8.96413L7.9972 12.9766L14.9696 16.9948L7.99086 21.0141L1.24766 17.1347C1.09761 17.0486 1.00565 16.8895 1.00565 16.7174L1 9.23343C1 9.06059 1.09196 8.90143 1.24201 8.81541L14.7316 1.06451C14.8817 0.978497 15.0664 0.978497 15.2157 1.06451L28.4471 8.68117C28.6617 8.80496 28.6617 9.11445 28.4471 9.23825L21.9572 12.977L14.9745 8.96413Z" fill="#3F3F45"/>
<path d="M21.9572 12.977L28.7037 16.8597C28.8529 16.9457 28.9457 17.1049 28.9457 17.2769L28.9545 24.7642C28.9553 24.9362 28.8626 25.0962 28.7125 25.1822L15.2173 32.9355C15.0672 33.0215 14.8825 33.0215 14.7332 32.9355L1.49127 25.3084C1.27588 25.1846 1.27588 24.8751 1.49127 24.7513L7.99165 21.0149L14.9728 25.0294L21.958 21.0214L14.9753 16.994L21.9572 12.977Z" fill="#3F3F45"/>
</g>
<defs>
<filter id="filter0_dii_5197_6130" x="0" y="0.5" width="29.9541" height="34" filterUnits="userSpaceOnUse" color-interpolation-filters="sRGB">
<feFlood flood-opacity="0" result="BackgroundImageFix"/>
<feColorMatrix in="SourceAlpha" type="matrix" values="0 0 0 0 0 0 0 0 0 0 0 0 0 0 0 0 0 0 127 0" result="hardAlpha"/>
<feOffset dy="0.5"/>
<feGaussianBlur stdDeviation="0.5"/>
<feComposite in2="hardAlpha" operator="out"/>
<feColorMatrix type="matrix" values="0 0 0 0 0 0 0 0 0 0 0 0 0 0 0 0 0 0 1 0"/>
<feBlend mode="normal" in2="BackgroundImageFix" result="effect1_dropShadow_5197_6130"/>
<feBlend mode="normal" in="SourceGraphic" in2="effect1_dropShadow_5197_6130" result="shape"/>
<feColorMatrix in="SourceAlpha" type="matrix" values="0 0 0 0 0 0 0 0 0 0 0 0 0 0 0 0 0 0 127 0" result="hardAlpha"/>
<feOffset dy="0.5"/>
<feGaussianBlur stdDeviation="0.5"/>
<feComposite in2="hardAlpha" operator="arithmetic" k2="-1" k3="1"/>
<feColorMatrix type="matrix" values="0 0 0 0 1 0 0 0 0 1 0 0 0 0 1 0 0 0 1 0"/>
<feBlend mode="normal" in2="shape" result="effect2_innerShadow_5197_6130"/>
<feColorMatrix in="SourceAlpha" type="matrix" values="0 0 0 0 0 0 0 0 0 0 0 0 0 0 0 0 0 0 127 0" result="hardAlpha"/>
<feOffset dy="-0.5"/>
<feGaussianBlur stdDeviation="0.5"/>
<feComposite in2="hardAlpha" operator="arithmetic" k2="-1" k3="1"/>
<feColorMatrix type="matrix" values="0 0 0 0 0 0 0 0 0 0 0 0 0 0 0 0 0 0 0.2 0"/>
<feBlend mode="normal" in2="effect2_innerShadow_5197_6130" result="effect3_innerShadow_5197_6130"/>
</filter>
</defs>
</svg>
