<svg width="16" height="16" viewBox="0 0 16 16" fill="none" xmlns="http://www.w3.org/2000/svg">
<path fill-rule="evenodd" clip-rule="evenodd" d="M6.51993 1.21511C7.49143 1.15053 8.50689 1.1504 9.48043 1.21511C12.5248 1.41748 14.9404 3.87501 15.139 6.94822C15.1761 7.52316 15.1761 8.11782 15.139 8.69276C14.9404 11.766 12.5248 14.2235 9.48043 14.4259C8.50689 14.4906 7.49143 14.4904 6.51993 14.4259C6.14331 14.4008 5.73335 14.3118 5.37242 14.1632C5.21369 14.0978 5.10595 14.0536 5.0271 14.0246C4.97289 14.0619 4.90088 14.1148 4.79603 14.1922C4.26773 14.5817 3.60077 14.855 2.65427 14.832L2.62379 14.8312C2.44119 14.8268 2.24657 14.8222 2.08784 14.7915C1.89666 14.7545 1.66013 14.662 1.5121 14.4096C1.35098 14.135 1.41558 13.8572 1.47808 13.6822C1.53707 13.5171 1.63932 13.3234 1.74377 13.1256L1.75809 13.0985C2.06898 12.5094 2.15559 12.0279 1.98937 11.7069C1.43448 10.8693 0.935308 9.83702 0.861361 8.69276C0.824208 8.11782 0.824208 7.52316 0.861361 6.94822C1.05997 3.87501 3.47549 1.41748 6.51993 1.21511ZM5.33349 7.33329C4.96531 7.33329 4.66683 7.63176 4.66683 7.99996C4.66683 8.36816 4.96531 8.66662 5.33349 8.66662H5.33947C5.70767 8.66662 6.00614 8.36816 6.00614 7.99996C6.00614 7.63176 5.70767 7.33329 5.33947 7.33329H5.33349ZM7.99716 7.33329C7.62896 7.33329 7.33049 7.63176 7.33049 7.99996C7.33049 8.36816 7.62896 8.66662 7.99716 8.66662H8.00316C8.37136 8.66662 8.66983 8.36816 8.66983 7.99996C8.66983 7.63176 8.37136 7.33329 8.00316 7.33329H7.99716ZM10.6608 7.33329C10.2926 7.33329 9.99416 7.63176 9.99416 7.99996C9.99416 8.36816 10.2926 8.66662 10.6608 8.66662H10.6668C11.035 8.66662 11.3335 8.36816 11.3335 7.99996C11.3335 7.63176 11.035 7.33329 10.6668 7.33329H10.6608Z" fill="#18181B"/>
</svg>
