<svg width="12" height="12" viewBox="0 0 12 12" fill="none" xmlns="http://www.w3.org/2000/svg">
<path d="M9.5 1C10.3284 1 11 1.67158 11 2.5V9.5C11 10.3284 10.3284 11 9.5 11H2.5C1.67158 11 1 10.3284 1 9.5V2.5C1 1.67157 1.67157 1 2.5 1H9.5ZM2.5 2C2.22386 2 2 2.22386 2 2.5V9.5C2 9.77615 2.22385 10 2.5 10H9.5C9.77616 10 10 9.77616 10 9.5V2.5C10 2.22385 9.77615 2 9.5 2H2.5ZM3.14648 3.14648C3.34174 2.95123 3.65825 2.95123 3.85352 3.14648L4.85352 4.14648C5.04878 4.34175 5.04878 4.65825 4.85352 4.85352L3.85352 5.85352C3.65825 6.04877 3.34174 6.04877 3.14648 5.85352C2.95124 5.65826 2.95124 5.34174 3.14648 5.14648L3.79297 4.5L3.14648 3.85352C2.95124 3.65826 2.95124 3.34174 3.14648 3.14648ZM7 5C7.27614 5 7.5 5.22386 7.5 5.5C7.5 5.77614 7.27614 6 7 6H5.5C5.22386 6 5 5.77614 5 5.5C5 5.22386 5.22386 5 5.5 5H7Z" fill="white"/>
</svg>
