<svg width="10" height="2" viewBox="0 0 10 2" fill="none" xmlns="http://www.w3.org/2000/svg">
<path d="M1.00586 0.166992C1.46604 0.167058 1.83887 0.539803 1.83887 1C1.83887 1.4602 1.46604 1.83294 1.00586 1.83301H1C0.539763 1.83301 0.166992 1.46024 0.166992 1C0.166992 0.539763 0.539763 0.166992 1 0.166992H1.00586ZM5.08887 0.170898C5.50889 0.213753 5.83691 0.568661 5.83691 1C5.83691 1.43134 5.50889 1.78625 5.08887 1.8291L5.00293 1.83301H4.99707C4.53692 1.8329 4.16406 1.46017 4.16406 1C4.16406 0.539827 4.53692 0.167097 4.99707 0.166992H5.00293L5.08887 0.170898ZM9.00586 0.166992C9.46604 0.167064 9.83887 0.539807 9.83887 1C9.83887 1.46019 9.46604 1.83294 9.00586 1.83301H9C8.53976 1.83301 8.16699 1.46024 8.16699 1C8.16699 0.539763 8.53976 0.166992 9 0.166992H9.00586Z" fill="#18181B"/>
</svg>
