<svg width="11" height="10" viewBox="0 0 11 10" fill="none" xmlns="http://www.w3.org/2000/svg">
<path d="M6.45801 0C6.59156 2.87676e-05 6.71958 0.0534772 6.81348 0.148438L6.84961 0.18457L6.92871 0.267578C7.72616 1.13931 7.9408 2.408 7.4707 3.5H9.51172C10.5442 3.50034 11.2499 4.52674 10.916 5.49316L9.87891 8.49316C9.67158 9.09264 9.10982 9.5 8.47363 9.5H1C0.447683 9.5 0 9.05221 0 8.5V4.5C0 3.9477 0.447724 3.5 1 3.5H2.79102L6.10254 0.148438L6.13965 0.114258C6.22883 0.0406737 6.34134 -1.48353e-05 6.45801 0ZM1 4.5V8.5H2.5V4.5H1ZM3.5 4.20508V8.5H8.47363C8.6771 8.5 8.86348 8.36955 8.93359 8.16699L9.97168 5.16699C10.0869 4.83354 9.83971 4.50035 9.51172 4.5H6.70508C6.53623 4.5 6.37846 4.41481 6.28613 4.27344C6.19383 4.13207 6.1792 3.95342 6.24707 3.79883L6.5459 3.11816C6.81593 2.50318 6.75978 1.80344 6.4209 1.24902L3.5 4.20508Z" fill="white"/>
</svg>
