<svg width="21" height="21" viewBox="0 0 21 30" fill="none" xmlns="http://www.w3.org/2000/svg">
<path d="M17.8871 2.80519H15.12V2.60482C15.12 1.15213 13.9835 0 12.5506 0H8.54823C7.06588 0 5.92941 1.15213 5.92941 2.60482V2.80519H3.16235C1.43294 2.80519 0 4.25788 0 6.01113V6.51206C0 6.66234 0 7.11317 0.345882 7.51391C0.543529 7.71429 0.691765 7.86456 1.28471 7.96475V23.5436C1.28471 25.4471 2.81647 27 4.69412 27H16.3059C18.1835 27 19.7153 25.4471 19.7153 23.5436V8.01484C20.4565 7.91466 21 7.26345 21 6.51206V6.01113C21 4.25788 19.6165 2.80519 17.8871 2.80519ZM7.90588 2.60482C7.90588 2.30427 8.15294 2.00371 8.49882 2.00371H12.5012C12.8471 2.00371 13.0941 2.30427 13.0941 2.60482V2.80519H7.90588V2.60482ZM3.16235 4.80891H17.8871C18.5294 4.80891 19.0235 5.35993 19.0235 5.96104C18.9247 5.96104 18.8259 5.96104 18.7271 5.96104H2.32235C2.17412 5.96104 2.07529 5.96104 1.97647 5.96104C1.97647 5.35993 2.52 4.80891 3.16235 4.80891ZM16.3059 24.9963H4.69412C3.90353 24.9963 3.26118 24.3451 3.26118 23.5436V8.01484C3.80471 8.01484 4.49647 8.01484 5.28706 8.01484C6.32471 8.01484 7.56 8.01484 9.09176 8.01484C11.3153 8.01484 14.1318 8.01484 17.7388 8.01484V23.5436C17.7882 24.3451 17.0965 24.9963 16.3059 24.9963Z" fill="black"/>
<path d="M6.07765 10.4694C5.53412 10.4694 5.08942 10.9202 5.08942 11.4712V21.4397C5.08942 21.9907 5.53412 22.4415 6.07765 22.4415C6.62118 22.4415 7.06589 21.9907 7.06589 21.4397V11.4712C7.06589 10.9202 6.62118 10.4694 6.07765 10.4694Z" fill="black"/>
<path d="M10.4753 10.4694C9.93177 10.4694 9.48706 10.9202 9.48706 11.4712V21.4397C9.48706 21.9907 9.93177 22.4415 10.4753 22.4415C11.0188 22.4415 11.4635 21.9907 11.4635 21.4397V11.4712C11.4635 10.9202 11.0188 10.4694 10.4753 10.4694Z" fill="black"/>
<path d="M14.8729 10.4694C14.3294 10.4694 13.8847 10.9202 13.8847 11.4712V21.4397C13.8847 21.9907 14.3294 22.4415 14.8729 22.4415C15.4165 22.4415 15.8612 21.9907 15.8612 21.4397V11.4712C15.8612 10.9202 15.4165 10.4694 14.8729 10.4694Z" fill="black"/>
</svg>
