<svg width="29" height="30" viewBox="0 0 29 30" fill="none" xmlns="http://www.w3.org/2000/svg">
<path d="M14.5003 0.666748C22.4165 0.666748 28.8337 7.084 28.8337 15.0001C28.8337 22.9162 22.4165 29.3334 14.5003 29.3334C6.58425 29.3334 0.166992 22.9162 0.166992 15.0001C0.166992 7.084 6.58425 0.666748 14.5003 0.666748ZM9.83366 20.6667C9.09729 20.6667 8.50033 21.2637 8.50033 22.0001C8.5005 22.7363 9.09738 23.3334 9.83366 23.3334H19.167C19.9033 23.3334 20.5002 22.7363 20.5003 22.0001C20.5003 21.2637 19.9034 20.6667 19.167 20.6667H9.83366ZM15.443 7.05738C14.9549 6.56922 14.1829 6.53909 13.6591 6.96623L13.5577 7.05738L8.89095 11.724C8.37041 12.2447 8.3703 13.0887 8.89095 13.6094C9.41161 14.1299 10.2557 14.1299 10.7764 13.6094L13.167 11.2188V17.3334C13.1671 18.0697 13.7641 18.6667 14.5003 18.6667C15.2366 18.6667 15.8335 18.0697 15.8337 17.3334V11.2188L18.2243 13.6094L18.3258 13.7006C18.8495 14.1275 19.6215 14.0974 20.1097 13.6094C20.5978 13.1214 20.6278 12.3493 20.2009 11.8256L20.1097 11.724L15.443 7.05738Z" fill="#18181B"/>
</svg>
