<svg width="15" height="15" viewBox="0 0 15 15" fill="none" xmlns="http://www.w3.org/2000/svg">
<path d="M7.16667 0C11.1247 0 14.3333 3.20863 14.3333 7.16667C14.3333 11.1247 11.1247 14.3333 7.16667 14.3333C3.20863 14.3333 0 11.1247 0 7.16667C0 3.20863 3.20863 0 7.16667 0ZM7.16667 9.15887C6.79847 9.15887 6.5 9.45733 6.5 9.82553V9.832C6.5 10.2002 6.79847 10.4987 7.16667 10.4987C7.53487 10.4987 7.83333 10.2002 7.83333 9.832V9.82553C7.83333 9.45733 7.53487 9.15887 7.16667 9.15887ZM7.16667 3.83333C6.79847 3.83333 6.5 4.13181 6.5 4.5V7.5C6.5 7.8682 6.79847 8.16667 7.16667 8.16667C7.53487 8.16667 7.83333 7.8682 7.83333 7.5V4.5C7.83333 4.13181 7.53487 3.83333 7.16667 3.83333Z" fill="#CC3314"/>
</svg>
