<svg width="40" height="36" viewBox="0 0 40 36" fill="none" xmlns="http://www.w3.org/2000/svg">
<path d="M18.5938 7.93799C19.0879 7.16149 20.118 6.93315 20.8945 7.42725C21.6711 7.92143 21.9004 8.95146 21.4062 9.72803L13.3174 22.437C12.8225 23.2128 11.7926 23.4404 11.0166 22.9458C10.2424 22.4522 9.3233 22.1665 8.33301 22.1665C5.57173 22.1667 3.33301 24.4052 3.33301 27.1665C3.3331 29.9277 5.57179 32.1663 8.33301 32.1665C9.60221 32.1665 10.7582 31.6953 11.6406 30.9165C12.3306 30.3079 13.3831 30.3734 13.9922 31.063C14.6013 31.7531 14.5358 32.8064 13.8457 33.4155C12.3777 34.7112 10.4453 35.4995 8.33301 35.4995C3.73084 35.4993 9.14807e-05 31.7687 0 27.1665C0 22.5642 3.73078 18.8327 8.33301 18.8325C9.38084 18.8325 10.3858 19.027 11.3115 19.3813L18.5938 7.93799ZM32.4258 20.1245C32.7464 19.2617 33.7065 18.8215 34.5693 19.1421C37.7379 20.3197 39.9999 23.3715 40 26.9556C40 31.4903 36.3346 35.4995 31.666 35.4995C27.6346 35.4993 24.2721 32.6361 23.5 28.8325H8.33301C7.41256 28.8325 6.66602 28.086 6.66602 27.1655C6.66615 26.2452 7.41264 25.4995 8.33301 25.4995H25C25.9203 25.4997 26.6659 26.2453 26.666 27.1655C26.666 29.9268 28.9048 32.1653 31.666 32.1655C34.3612 32.1655 36.666 29.7846 36.666 26.9556C36.6659 24.8094 35.3133 22.9752 33.4082 22.2671C32.5455 21.9465 32.1055 20.9872 32.4258 20.1245ZM20.001 0.499512C24.6032 0.499746 28.334 4.23127 28.334 8.8335C28.3339 11.1415 27.3941 13.2293 25.8809 14.7368C28.3022 18.5719 30.7171 22.4199 33.0889 26.2964C33.5692 27.0815 33.3222 28.108 32.5371 28.5884C31.7519 29.0688 30.7255 28.8218 30.2451 28.0366C27.631 23.764 24.9626 19.5216 22.2803 15.2778C21.7966 14.5126 22.0119 13.501 22.7656 12.9995C24.1161 12.1009 25.0008 10.5702 25.001 8.8335C25.001 6.07222 22.7622 3.83373 20.001 3.8335C17.2396 3.8335 15.001 6.07207 15.001 8.8335C15.0007 9.75374 14.2543 10.4995 13.334 10.4995C12.4137 10.4995 11.6672 9.75377 11.667 8.8335C11.667 4.23112 15.3986 0.499512 20.001 0.499512Z" fill="#18181B"/>
</svg>
