<svg width="21" height="18" viewBox="0 0 21 18" fill="none" xmlns="http://www.w3.org/2000/svg">
<path d="M9.63037 3.96973C9.87745 3.58146 10.3925 3.46682 10.7808 3.71387C11.169 3.96096 11.2837 4.47597 11.0366 4.86426L6.9917 11.2188C6.7442 11.6065 6.22926 11.7209 5.84131 11.4736C5.45429 11.2269 4.99548 11.0831 4.50049 11.083C3.11992 11.083 2.00072 12.2025 2.00049 13.583C2.00049 14.9637 3.11978 16.083 4.50049 16.083C5.13494 16.0829 5.71268 15.8483 6.15381 15.459C6.49887 15.1544 7.02504 15.1872 7.32959 15.5322C7.63411 15.8773 7.60136 16.4035 7.25635 16.708C6.52241 17.3558 5.55651 17.7499 4.50049 17.75C2.1993 17.75 0.333496 15.8842 0.333496 13.583C0.333729 11.282 2.19945 9.41699 4.50049 9.41699C5.02435 9.41703 5.52691 9.51423 5.98975 9.69141L9.63037 3.96973ZM16.5464 10.0625C16.7067 9.63119 17.1863 9.41121 17.6177 9.57129C19.202 10.16 20.3333 11.6856 20.3335 13.4775C20.3335 15.7449 18.5008 17.75 16.1665 17.75C14.1508 17.7498 12.4695 16.3178 12.0835 14.416H4.50049C4.04027 14.416 3.66653 14.0432 3.6665 13.583C3.6665 13.1228 4.04025 12.75 4.50049 12.75H12.8335C13.2937 12.75 13.6665 13.1228 13.6665 13.583C13.6665 14.9636 14.786 16.0828 16.1665 16.083C17.5141 16.083 18.6665 14.8921 18.6665 13.4775C18.6663 12.4046 17.9901 11.4878 17.0376 11.1338C16.6063 10.9735 16.3864 10.4938 16.5464 10.0625ZM10.3335 0.25C12.6347 0.25 14.5005 2.11581 14.5005 4.41699C14.5004 5.57097 14.0305 6.61541 13.2739 7.36914C14.4845 9.28657 15.6916 11.2103 16.8774 13.1484C17.1176 13.5409 16.9943 14.0536 16.6021 14.2939C16.2095 14.5341 15.6958 14.4111 15.4556 14.0186C14.1485 11.8822 12.8143 9.76055 11.4731 7.63867C11.2316 7.2561 11.3396 6.75066 11.7163 6.5C12.3914 6.05069 12.8334 5.28523 12.8335 4.41699C12.8335 3.03628 11.7142 1.91699 10.3335 1.91699C8.95278 1.91699 7.8335 3.03628 7.8335 4.41699C7.83332 4.87697 7.46047 5.24982 7.00049 5.25C6.54036 5.25 6.16668 4.87708 6.1665 4.41699C6.1665 2.11581 8.03231 0.25 10.3335 0.25Z" fill="#18181B"/>
</svg>
